<?xml version="1.0" standalone="no"?>
<!DOCTYPE svg PUBLIC "-//W3C//DTD SVG 20010904//EN"
 "http://www.w3.org/TR/2001/REC-SVG-20010904/DTD/svg10.dtd">
<svg version="1.0" xmlns="http://www.w3.org/2000/svg"
 width="800.000000pt" height="800.000000pt" viewBox="0 0 800.000000 800.000000"
 preserveAspectRatio="xMidYMid meet">
<metadata>
Created by potrace 1.14, written by Peter Selinger 2001-2017
</metadata>
<g transform="translate(0.000000,800.000000) scale(0.100000,-0.100000)"
fill="#000000" stroke="none">
<path d="M4510 7789 c23 -213 17 -395 -21 -579 -37 -187 -141 -419 -351 -790
-110 -195 -91 -166 -239 -350 -159 -197 -231 -276 -674 -736 -369 -383 -443
-466 -609 -678 -190 -243 -361 -544 -440 -774 -40 -115 -37 -103 -70 -262 -51
-238 -55 -505 -10 -740 76 -405 266 -812 547 -1175 82 -107 303 -327 402 -402
301 -226 578 -332 884 -337 l104 -2 33 -77 c126 -300 314 -553 538 -721 79
-59 109 -68 126 -37 19 36 11 49 -62 106 -100 78 -210 186 -280 275 -32 41
-62 80 -66 85 -41 52 -148 249 -182 334 l-19 50 32 6 c169 36 439 159 637 290
328 216 648 524 812 780 113 176 237 464 303 700 38 133 54 205 81 355 11 61
12 64 19 125 4 33 9 68 11 78 19 107 26 612 11 827 -9 121 -28 292 -42 370 -3
14 -7 41 -10 60 -59 378 -182 845 -325 1230 -17 47 -35 96 -40 110 -10 30 -64
163 -132 325 -56 134 -288 608 -369 755 -84 153 -224 383 -336 555 -110 167
-264 384 -273 385 -3 0 1 -64 10 -141z"/>
</g>
</svg>
