<svg
  class="img-fluid"
  id="outputsvg"
  xmlns="http://www.w3.org/2000/svg"
  style="
    transform: none;
    transform-origin: 50% 50%;
    cursor: move;
    max-height: none;
  "
  width="1280"
  height="1300"
  viewBox="0 0 12800 13000"
>
  <g
    id="l5zduk7Pm4XRXpAiigJuvJo"
    fill="none"
    stroke="#000000"
    stroke-width="10"
    style="transform: none"
  >
    <g>
      <path
        id="p1BU1SgWTH"
        d="M530 12755 l0 -245 1470 0 c809 0 1470 -3 1470 -6 0 -3 -9 -19 -21 -35 -27 -38 -67 -137 -80 -199 -12 -56 -20 -62 -38 -24 -6 14 -17 24 -24 21 -14 -4 -15 -43 -3 -102 8 -39 7 -39 -12 -22 -10 9 -28 35 -38 57 -17 36 -44 54 -44 30 0 -27 52 -147 88 -202 62 -96 78 -158 37 -142 -45 18 4 -62 117 -187 37 -42 68 -79 68 -84 0 -8 -15 -5 -97 18 -29 8 -53 12 -53 8 0 -8 98 -82 218 -166 90 -62 165 -145 208 -233 25 -49 26 -59 22 -155 -4 -81 -11 -115 -32 -167 -16 -36 -32 -69 -37 -74 -5 -6 -29 12 -59 42 -28 29 -56 52 -61 52 -13 0 -15 5 39 -101 38 -77 41 -88 31 -117 -6 -18 -15 -32 -20 -32 -4 0 -23 18 -40 40 -18 22 -36 40 -41 40 -11 0 -1 -42 24 -100 21 -48 26 -138 10 -180 -9 -24 -10 -23 -30 22 -34 77 -82 141 -96 129 -10 -9 -9 -21 5 -63 9 -29 22 -97 28 -150 13 -115 15 -308 3 -308 -5 0 -17 55 -26 123 -24 167 -36 219 -49 214 -7 -2 -18 -35 -25 -73 -17 -90 -9 -218 23 -359 14 -60 25 -112 25 -115 0 -3 -13 11 -28 30 -74 96 -132 144 -132 110 0 -5 30 -74 66 -152 56 -121 100 -253 88 -267 -2 -2 -32 22 -67 53 -61 53 -87 67 -87 47 0 -16 51 -113 111 -211 49 -81 87 -176 74 -188 -2 -2 -34 17 -71 43 -38 26 -70 43 -71 38 -2 -5 16 -45 40 -88 24 -44 63 -115 86 -157 31 -56 53 -118 80 -225 21 -81 42 -157 46 -167 15 -35 -13 -8 -96 95 -45 56 -85 97 -90 92 -4 -4 23 -73 62 -152 65 -132 77 -149 146 -215 41 -39 105 -102 141 -141 120 -127 200 -203 247 -235 43 -30 110 -108 101 -118 -3 -2 -28 14 -57 36 -29 22 -57 38 -61 36 -12 -8 7 -38 87 -144 40 -53 82 -116 94 -140 l22 -45 -28 30 c-15 17 -43 48 -62 70 l-33 40 6 -56 c3 -31 17 -85 30 -120 31 -80 105 -255 140 -332 33 -73 19 -66 -35 18 -40 62 -68 85 -56 48 33 -105 129 -306 178 -374 19 -26 71 -87 116 -135 44 -49 100 -113 124 -143 l42 -53 -54 30 c-45 25 -177 72 -204 72 -18 0 25 -36 119 -100 100 -68 183 -142 141 -125 -11 4 -47 14 -80 22 -33 8 -82 21 -109 30 -55 16 -81 5 -44 -19 13 -8 73 -41 133 -73 118 -62 185 -107 225 -150 22 -25 19 -24 -25 7 -69 49 -101 64 -186 88 -48 13 -76 17 -83 10 -12 -12 6 -27 104 -82 41 -23 95 -60 119 -82 40 -38 108 -126 97 -126 -3 0 -29 15 -58 33 -29 18 -66 38 -81 45 -33 14 -103 16 -111 3 -3 -5 24 -28 61 -52 65 -42 163 -133 163 -150 0 -5 -21 6 -47 25 -48 33 -103 54 -103 38 0 -5 14 -21 30 -37 19 -19 28 -35 25 -46 -3 -10 10 -49 30 -88 35 -70 35 -90 0 -51 -31 34 -38 24 -31 -40 l7 -60 -109 0 c-78 0 -114 -4 -128 -14 -18 -14 -18 -16 19 -54 l39 -39 -39 -8 c-21 -4 -58 -16 -83 -28 -30 -13 -75 -23 -132 -26 -100 -7 -133 -25 -110 -61 6 -11 12 -21 12 -22 0 -2 -30 -1 -66 0 -89 5 -114 -2 -114 -33 0 -13 5 -27 10 -30 19 -12 10 -27 -12 -22 -13 3 -76 17 -140 32 -65 15 -125 25 -134 21 -33 -13 -10 -48 56 -88 75 -46 75 -46 67 -54 -15 -16 -99 -26 -272 -34 -220 -9 -272 -22 -475 -114 -276 -124 -668 -377 -833 -536 -129 -124 -140 -146 -135 -264 3 -62 10 -102 23 -126 30 -57 93 -125 156 -170 112 -79 460 -253 706 -353 102 -42 169 -78 275 -148 21 -13 38 -27 38 -31 0 -16 -96 -7 -150 13 -72 26 -159 49 -190 49 -21 0 -15 -7 35 -39 33 -21 122 -70 198 -109 75 -39 133 -74 127 -77 -5 -3 -42 -7 -82 -8 -64 -2 -82 2 -142 31 -37 17 -70 32 -73 32 -8 0 9 -45 25 -63 18 -21 195 -117 262 -143 25 -9 49 -20 53 -24 14 -13 -86 -68 -165 -91 -43 -13 -78 -26 -78 -31 0 -14 72 -21 171 -16 l99 5 -18 -31 c-11 -19 -42 -43 -83 -64 -35 -19 -64 -39 -64 -45 0 -7 33 -18 78 -26 63 -12 77 -18 72 -30 -15 -38 -27 -110 -22 -125 4 -9 17 -16 31 -16 28 0 37 -10 45 -54 5 -22 16 -35 38 -46 28 -13 33 -20 33 -52 0 -29 6 -41 26 -54 22 -15 25 -22 19 -51 -5 -29 -3 -35 20 -45 31 -14 31 -31 0 -90 -37 -70 -34 -83 28 -114 28 -15 53 -28 55 -29 2 -2 -4 -15 -13 -29 -17 -25 -16 -26 17 -46 18 -11 37 -21 43 -23 5 -2 -7 -18 -28 -36 -30 -27 -35 -36 -27 -51 9 -18 38 -26 153 -45 33 -5 37 -8 26 -22 -7 -8 -38 -32 -69 -53 -65 -45 -105 -86 -92 -94 5 -3 31 2 58 11 42 14 60 15 128 5 43 -6 81 -14 84 -17 2 -2 -23 -37 -56 -76 -40 -47 -73 -99 -93 -147 -37 -89 -161 -555 -195 -734 -28 -144 -61 -245 -106 -321 -39 -66 -52 -149 -37 -228 15 -75 67 -137 153 -181 l61 -32 180 1 180 1 111 40 c61 22 144 45 185 52 193 32 251 52 504 175 l180 88 100 101 c106 108 129 121 255 146 40 8 72 24 120 59 36 27 66 48 68 46 2 -2 -4 -27 -12 -56 -9 -29 -16 -64 -16 -77 0 -20 2 -22 15 -12 22 18 60 89 79 146 16 48 59 104 72 92 3 -3 -1 -21 -9 -39 -20 -49 -29 -89 -19 -89 5 0 26 25 47 55 21 31 41 58 45 60 4 3 6 -37 4 -88 l-4 -92 24 50 c14 28 25 58 25 68 1 21 78 107 96 107 7 0 18 -26 25 -60 14 -67 32 -75 40 -16 3 20 10 37 15 37 6 0 23 -31 39 -70 30 -72 42 -85 48 -53 3 12 10 5 26 -26 12 -23 25 -42 29 -42 3 0 3 21 -1 46 -5 37 -2 52 14 73 10 15 27 58 36 96 21 83 29 71 43 -70 11 -112 18 -128 38 -91 10 19 14 65 14 161 0 74 4 135 9 135 15 0 38 -40 66 -112 14 -38 30 -66 34 -63 5 3 18 39 31 80 12 41 25 75 30 75 4 0 10 -14 14 -30 4 -17 10 -30 15 -30 14 0 41 176 35 232 l-5 53 30 -60 c16 -32 35 -83 41 -112 7 -30 17 -52 23 -50 6 2 28 56 49 120 21 64 42 117 46 117 5 0 18 -24 30 -52 12 -29 26 -62 30 -73 6 -14 11 4 16 63 7 78 9 82 32 82 13 0 26 7 30 18 3 9 12 33 20 52 17 41 24 33 49 -50 20 -68 43 -120 55 -120 13 0 11 57 -6 125 -27 112 -15 129 58 80 20 -14 37 -23 37 -19 0 4 -13 29 -30 56 -16 26 -30 50 -30 52 0 2 16 38 36 81 26 57 39 74 47 66 6 -6 14 -11 18 -11 13 0 39 80 39 121 0 36 2 40 21 34 19 -6 20 -4 14 24 -4 17 -4 31 -1 31 2 0 37 -12 77 -26 51 -18 81 -24 106 -19 l34 6 -7 47 c-4 26 -18 78 -30 116 -13 38 -24 72 -24 74 0 11 36 -27 67 -73 l35 -50 -5 52 c-2 31 -17 78 -34 113 -31 64 -29 70 18 43 27 -16 49 -53 85 -143 9 -22 20 -37 25 -34 14 8 10 163 -5 223 -8 29 -22 61 -30 70 -33 36 -14 34 23 -3 44 -43 53 -38 54 33 1 34 -7 62 -30 104 -17 31 -27 59 -22 62 23 15 91 -52 136 -133 l30 -53 7 38 c13 77 18 229 8 270 -10 43 -5 52 15 32 7 -7 15 -5 28 7 14 14 16 27 11 67 l-7 49 73 -64 c86 -75 142 -118 183 -143 39 -24 27 -12 -120 117 -66 58 -133 120 -150 138 l-30 32 54 -22 c30 -11 60 -19 68 -16 20 8 16 60 -9 111 -12 24 -19 47 -16 50 9 10 55 -15 258 -136 107 -64 242 -140 300 -169 114 -57 430 -184 438 -176 3 3 -4 9 -14 12 -181 64 -574 264 -749 381 -45 30 -54 42 -89 126 -40 96 -58 187 -36 187 7 0 109 -47 228 -104 327 -156 464 -213 822 -342 36 -13 79 -26 95 -29 25 -5 24 -3 -11 13 -23 11 -57 23 -75 27 -19 4 -52 16 -74 26 -22 10 -125 54 -230 98 -309 129 -746 336 -752 357 -2 7 7 24 20 40 25 28 32 28 77 -3 l25 -18 -18 27 c-9 15 -17 29 -17 32 0 3 39 -9 88 -25 110 -38 267 -79 296 -78 25 1 34 -3 -159 58 -181 58 -207 70 -203 95 2 14 15 25 38 32 20 7 41 23 50 39 12 22 29 31 80 44 52 13 65 21 65 36 0 21 -28 38 -93 55 -66 17 -40 30 62 30 81 0 95 3 112 21 18 20 18 21 -6 40 -14 10 -29 19 -34 19 -5 0 -2 8 7 18 10 10 17 24 17 30 0 17 7 15 41 -10 21 -16 44 -22 82 -22 80 -1 153 36 95 48 -109 23 -109 22 -30 31 76 8 109 25 114 60 2 14 -3 21 -19 23 -13 2 -23 6 -23 10 0 4 40 28 88 54 48 26 97 57 108 69 l19 22 -60 -6 c-33 -4 -86 -15 -117 -25 -62 -21 -64 -20 -46 21 17 35 44 45 158 57 148 17 159 50 31 87 -36 10 -66 24 -68 30 -6 16 38 43 87 54 22 5 89 16 150 24 60 7 122 20 137 28 l28 15 -47 7 c-26 4 -97 6 -158 3 -60 -2 -110 -3 -110 -3 0 11 44 85 58 98 10 9 72 33 137 51 65 19 125 41 133 50 15 15 10 16 -53 17 -39 1 -85 1 -102 0 -40 -3 -42 10 -11 56 15 21 58 52 118 85 57 32 121 78 161 116 83 80 164 140 261 195 43 24 75 47 71 50 -3 4 -31 7 -62 7 -65 0 -122 -23 -196 -79 -73 -54 -80 -58 -61 -28 10 14 47 47 84 75 78 58 242 202 242 213 0 4 -16 10 -36 13 -41 8 -90 -16 -166 -84 -27 -23 -48 -39 -48 -36 0 3 12 35 26 71 18 45 38 74 63 94 20 16 50 53 67 83 17 29 56 96 86 148 87 149 128 236 135 288 l6 47 -59 -54 c-32 -29 -73 -67 -90 -82 -17 -16 -35 -29 -39 -29 -20 0 8 97 44 155 39 62 131 279 131 309 0 17 -17 20 -45 9 -10 -3 -35 -33 -56 -66 l-39 -60 0 42 c0 56 19 91 95 171 68 72 87 103 117 189 21 61 37 211 22 211 -12 0 -53 -66 -107 -176 -72 -144 -106 -157 -62 -22 33 99 60 154 128 262 133 212 175 313 184 442 10 145 -13 118 -118 -135 -21 -52 -40 -95 -42 -98 -2 -2 -11 -1 -20 3 -13 5 -12 14 8 75 35 101 50 218 36 274 -16 65 -14 93 15 176 14 41 28 106 31 145 6 78 -4 172 -17 158 -4 -5 -22 -43 -40 -84 -17 -41 -36 -79 -42 -85 -18 -17 -2 113 26 211 14 49 32 135 42 192 15 95 15 112 0 247 -9 80 -19 152 -23 161 -4 10 -17 -21 -35 -82 -16 -55 -33 -103 -37 -107 -5 -5 -24 -5 -44 -2 l-35 7 -7 86 c-3 48 -13 125 -21 171 l-15 83 50 88 c28 48 51 93 51 99 0 21 -35 11 -74 -21 -37 -30 -39 -31 -52 -13 -8 10 -14 28 -14 39 0 82 -23 328 -37 405 -14 77 -15 103 -5 150 12 59 16 203 6 213 -3 4 -19 2 -37 -3 -17 -5 -33 -6 -36 -4 -7 7 -49 248 -57 326 -7 72 -8 69 55 179 24 44 31 67 31 113 0 31 -3 57 -7 57 -5 -1 -28 -28 -53 -61 l-45 -61 -3 51 c-2 27 6 89 17 136 22 91 27 145 13 145 -12 0 -48 -51 -67 -96 l-17 -39 -10 30 c-6 17 -13 125 -15 240 -5 209 -5 211 21 274 14 36 24 67 21 69 -11 12 -85 -20 -105 -45 -11 -14 -23 -24 -26 -21 -3 4 -11 30 -18 60 -8 29 -32 114 -55 188 l-42 135 7 161 c7 184 4 194 -67 194 l-39 0 0 78 c0 42 4 82 8 88 4 6 28 20 53 32 67 32 112 80 163 174 70 128 107 253 114 376 l5 102 1503 0 1504 0 0 245 0 245 -5870 0 -5870 0 0 -245z m6543 -100 c32 -32 40 -83 26 -164 -18 -99 -16 -207 3 -251 l16 -35 11 29 c6 15 16 58 21 95 16 110 46 196 81 225 36 30 54 34 44 9 -25 -59 -27 -169 -4 -161 5 2 28 41 52 88 24 47 50 85 58 85 19 0 57 -60 74 -118 27 -93 12 -300 -25 -337 -26 -26 -193 -64 -282 -65 -84 0 -93 -7 -55 -43 49 -46 122 -46 283 3 27 8 50 13 51 11 2 -2 -9 -43 -26 -92 -27 -83 -42 -120 -107 -279 -13 -34 -44 -83 -67 -110 -24 -28 -73 -108 -108 -180 -36 -71 -84 -166 -107 -210 -22 -44 -44 -93 -48 -109 l-7 -29 41 23 c22 13 55 42 72 66 44 62 54 65 46 15 -8 -53 -84 -225 -123 -279 -62 -85 -91 -112 -121 -112 -16 0 -46 -7 -65 -15 -20 -8 -63 -15 -95 -15 -40 0 -64 -5 -72 -15 -12 -14 -40 -14 -178 0 -43 5 -44 4 -59 -35 l-16 -40 -26 28 c-21 22 -25 35 -22 74 2 39 -1 48 -19 58 -27 14 -64 -7 -88 -52 -28 -50 -36 -57 -72 -63 l-36 -6 -12 60 c-12 55 -31 88 -39 65 -11 -30 -22 -38 -37 -25 -10 9 -29 11 -56 6 l-40 -7 0 -59 c0 -69 21 -119 50 -119 10 0 22 5 25 10 16 26 25 4 25 -60 0 -38 4 -70 9 -70 14 0 49 48 63 86 20 57 40 36 31 -32 -2 -22 0 -50 5 -64 l9 -24 25 27 26 27 0 -79 c0 -121 12 -128 55 -32 20 44 37 84 37 89 0 17 25 29 73 36 44 7 47 6 47 -16 0 -13 -9 -57 -20 -98 -21 -81 -25 -130 -11 -130 5 0 30 40 55 89 29 56 60 101 83 120 44 36 53 38 76 11 20 -24 57 -26 98 -4 50 26 55 10 11 -37 -46 -51 -67 -94 -51 -105 6 -3 52 14 103 40 50 25 103 48 117 52 23 5 27 1 38 -34 18 -52 12 -71 -50 -172 -85 -138 -111 -189 -107 -207 5 -28 23 -21 72 25 26 24 46 38 46 31 0 -30 -46 -161 -80 -229 -21 -41 -41 -94 -45 -117 -4 -25 -12 -43 -20 -43 -7 0 -27 -14 -45 -30 -18 -17 -34 -29 -35 -28 -1 2 -6 26 -11 53 -15 82 -49 71 -191 -58 -29 -27 -34 -28 -63 -18 -26 9 -43 7 -91 -9 -70 -24 -89 -25 -115 -5 -10 8 -26 15 -35 15 -9 0 -37 11 -63 25 -58 31 -64 31 -93 3 -23 -22 -25 -22 -53 -6 -20 11 -41 15 -69 11 -26 -4 -46 -1 -57 8 -18 14 -161 22 -169 9 -6 -10 -89 13 -110 30 -20 17 -43 6 -55 -26 l-10 -26 -29 39 c-29 40 -129 133 -143 133 -16 0 -7 24 28 77 l36 54 46 -93 c31 -61 54 -94 66 -96 22 -5 22 -6 -14 159 -21 99 -22 179 -2 179 4 0 19 -27 34 -60 23 -52 50 -81 63 -68 2 2 -2 69 -10 149 -13 134 -11 229 4 229 3 0 14 -27 23 -59 21 -69 60 -122 78 -105 8 8 8 33 -1 96 -10 75 -10 92 5 134 9 27 21 83 26 124 14 110 21 135 30 119 5 -7 12 -34 15 -59 3 -25 10 -52 14 -59 14 -22 41 77 48 174 4 65 12 103 29 137 13 26 27 49 32 52 5 3 14 -29 20 -71 17 -110 40 -129 63 -55 10 35 29 271 33 407 l1 60 110 5 c105 5 114 7 198 48 82 40 92 48 149 125 75 101 92 139 83 186 -3 20 -7 62 -9 94 -2 41 -9 66 -25 88 -20 26 -21 33 -10 63 7 18 9 40 6 49 -8 21 -192 156 -241 177 -23 10 -82 28 -132 41 l-90 23 -18 146 -18 147 21 48 c23 53 32 51 51 -8 15 -48 33 -37 50 31 12 48 46 112 59 112 5 0 11 -53 14 -117 6 -128 31 -230 68 -277 15 -19 21 -41 21 -71 -1 -50 3 -53 95 -62 53 -5 64 -3 69 11 9 24 -5 35 -68 57 -52 17 -53 18 -76 84 -29 85 -35 269 -10 326 15 33 64 79 85 79 5 0 8 -24 5 -54 -4 -53 20 -146 38 -146 9 0 30 56 30 80 0 26 62 140 75 140 14 0 63 -36 87 -65 14 -16 17 -41 16 -140 0 -124 10 -171 54 -259 18 -36 19 -41 4 -51 -21 -16 -20 -42 2 -54 9 -5 42 -14 72 -19 30 -6 75 -18 99 -26 24 -9 57 -16 73 -16 31 0 47 22 30 43 -17 20 -187 107 -209 107 -29 0 -39 17 -53 85 -24 117 5 280 62 349 47 57 80 70 198 77 58 3 110 6 117 7 6 1 18 -5 26 -13z m670 -30 c9 -8 18 -20 21 -27 4 -8 8 -9 11 -3 19 37 22 38 53 16 17 -11 46 -46 66 -76 38 -56 49 -100 61 -232 4 -39 13 -80 20 -90 12 -16 14 -13 26 27 15 50 19 254 6 311 l-9 35 74 23 c41 13 112 25 163 28 117 7 125 1 169 -132 44 -129 54 -225 31 -283 -10 -24 -15 -45 -12 -48 7 -8 61 21 78 42 18 22 15 135 -6 239 -15 72 -15 78 2 108 17 29 25 33 79 39 32 3 109 7 169 9 l110 3 17 -105 c9 -57 17 -134 17 -171 l1 -67 -61 -66 c-34 -36 -59 -68 -56 -71 11 -11 116 26 145 51 58 48 59 57 36 368 -5 58 -3 87 4 87 46 0 138 -69 186 -140 38 -57 7 -217 -73 -383 -55 -115 -87 -151 -134 -153 -34 -2 -314 -97 -330 -113 -5 -5 6 -14 29 -21 35 -12 110 -9 162 6 22 6 22 6 22 -102 0 -93 -4 -121 -27 -189 l-28 -79 -9 42 c-9 43 -13 47 -32 34 -38 -24 -136 -352 -105 -352 4 0 15 21 22 48 l14 47 5 -120 c3 -71 9 -119 15 -118 5 1 15 35 21 76 12 75 43 159 63 171 7 5 11 -8 11 -42 0 -95 59 -97 73 -3 4 29 12 62 18 73 9 17 13 18 24 7 17 -18 76 -170 110 -282 23 -75 25 -92 15 -123 -19 -58 -58 -93 -159 -143 -84 -42 -101 -47 -136 -40 -41 7 -65 -3 -65 -27 0 -13 -46 -29 -100 -36 -19 -2 -26 -10 -28 -32 -3 -24 -7 -27 -29 -23 -19 3 -27 0 -30 -14 -5 -20 -23 -27 -23 -9 0 19 -38 31 -52 17 -7 -8 -30 -17 -50 -21 -20 -3 -49 -13 -64 -20 -16 -8 -41 -17 -57 -20 -23 -5 -29 -2 -37 18 -13 35 -24 38 -49 12 -27 -29 -30 -73 -6 -109 21 -32 36 -34 53 -6 13 20 14 20 33 3 17 -16 25 -16 67 -6 61 16 367 24 449 12 50 -7 72 -16 100 -40 33 -29 37 -30 52 -16 9 10 18 40 21 74 5 52 7 57 30 58 14 1 30 2 36 3 6 0 21 24 34 51 13 28 25 50 27 50 19 0 64 -35 68 -53 25 -108 58 -284 62 -335 4 -49 0 -79 -20 -145 -38 -122 -48 -175 -41 -215 6 -33 9 -28 45 81 49 150 54 160 63 112 4 -20 6 -67 5 -103 -9 -240 -3 -292 34 -292 21 0 25 -8 36 -62 7 -35 13 -70 14 -78 3 -20 -43 -40 -113 -50 -32 -4 -70 -16 -84 -25 -23 -15 -30 -16 -57 -4 -29 11 -33 10 -48 -10 -16 -20 -23 -22 -66 -15 -47 7 -50 6 -79 -29 -30 -35 -33 -36 -71 -27 -36 8 -43 7 -64 -15 -15 -15 -27 -41 -31 -67 l-6 -43 -38 57 c-36 54 -39 56 -69 47 -19 -5 -45 -5 -67 1 -64 18 -64 17 -5 -124 25 -60 45 -114 45 -122 0 -8 -19 5 -43 28 -87 87 -209 198 -217 198 -16 0 -21 -20 -10 -40 9 -16 8 -25 0 -36 -10 -11 -4 -29 31 -89 23 -41 45 -73 47 -70 3 2 -1 25 -7 51 -15 59 -9 65 14 14 19 -43 35 -52 35 -20 0 11 4 20 10 20 16 0 98 -109 142 -187 22 -40 46 -73 54 -73 15 0 15 2 -12 111 -27 110 -12 106 48 -11 53 -105 73 -115 66 -37 l-4 55 31 -5 c29 -5 33 -2 44 27 6 18 11 48 11 66 0 45 13 49 67 23 54 -26 76 -18 81 30 4 36 5 36 35 16 27 -17 39 -11 61 35 9 19 26 46 37 59 19 23 20 23 39 6 11 -10 23 -36 26 -57 6 -35 9 -38 39 -38 31 0 33 2 39 50 4 28 11 50 16 50 5 0 24 -16 43 -37 29 -30 42 -60 76 -177 48 -163 63 -276 38 -276 -47 0 -194 -160 -228 -249 -34 -90 -10 -82 115 39 84 82 120 110 128 102 21 -21 5 -142 -30 -216 -19 -40 -32 -84 -32 -107 0 -38 1 -39 26 -33 l27 7 -8 -139 c-8 -157 -14 -178 -53 -171 -19 4 -33 -2 -53 -22 -37 -37 -176 -82 -299 -96 -25 -3 -53 -8 -62 -11 -11 -3 -47 14 -92 43 -55 36 -78 58 -92 88 -15 32 -25 41 -50 43 -25 2 -40 16 -83 77 -30 42 -64 78 -79 83 -41 16 -91 22 -96 13 -14 -23 101 -218 200 -338 32 -40 66 -82 74 -94 15 -21 17 -21 47 -6 29 15 32 15 49 -4 16 -18 27 -20 69 -15 38 4 57 2 74 -10 16 -11 32 -14 54 -9 72 16 231 15 274 -1 l42 -16 -6 -72 -6 -71 23 20 c13 11 31 38 41 60 10 22 29 53 42 70 24 29 25 29 51 12 36 -24 33 -50 -13 -160 -46 -107 -58 -147 -43 -147 6 0 42 35 81 77 39 42 74 73 78 69 5 -4 9 -77 11 -161 l3 -154 -56 -111 c-52 -101 -118 -191 -130 -178 -7 7 43 119 62 141 13 14 14 17 2 17 -44 0 -99 -64 -166 -193 -80 -153 -68 -210 20 -98 38 48 53 59 84 65 21 3 48 9 61 12 l23 7 -22 -37 c-28 -47 -17 -58 21 -21 16 16 33 25 37 22 13 -13 -27 -113 -60 -153 -18 -21 -55 -74 -81 -116 -27 -43 -52 -78 -57 -78 -5 0 -26 -15 -47 -34 -46 -42 -97 -56 -215 -60 -51 -2 -100 -7 -110 -11 -10 -4 -29 -3 -43 4 -14 6 -40 11 -59 11 -19 0 -35 4 -35 10 0 17 -60 41 -93 38 -28 -3 -32 -7 -35 -34 -5 -47 13 -82 45 -90 15 -4 38 -16 50 -27 17 -15 30 -18 54 -13 26 5 36 1 55 -19 27 -29 47 -31 88 -10 32 17 45 8 46 -30 1 -38 15 -46 106 -55 73 -8 91 -7 104 5 22 20 30 19 63 -8 l27 -23 -15 -85 c-36 -194 -100 -361 -175 -454 -93 -116 -101 -186 -13 -119 30 22 33 23 33 6 0 -10 -21 -43 -46 -72 -26 -30 -53 -65 -61 -77 -15 -22 -104 -93 -117 -93 -3 0 -6 16 -6 35 0 48 -22 46 -76 -8 -31 -31 -45 -40 -49 -29 -10 26 -5 87 8 107 50 75 80 198 58 234 -9 13 -27 -10 -95 -121 -20 -35 -36 -35 -66 -3 -26 27 -29 59 -16 143 9 59 -2 67 -41 30 -13 -12 -26 -18 -30 -15 -8 9 -8 54 2 132 8 67 -4 130 -25 130 -9 0 -20 -25 -31 -68 -20 -79 -35 -103 -55 -86 -9 8 -14 34 -14 80 0 90 -26 149 -45 102 -12 -32 -25 8 -29 94 -4 76 -6 79 -43 111 l-38 34 -7 -74 c-3 -40 -10 -117 -14 -170 l-7 -97 34 -3 c31 -3 34 -7 42 -45 6 -34 20 -53 74 -103 36 -33 72 -60 79 -60 7 0 16 -17 19 -37 10 -59 79 -186 109 -201 l25 -13 -19 -49 c-11 -28 -19 -71 -19 -98 2 -51 -24 -113 -59 -145 -20 -18 -120 -57 -147 -57 -10 0 -15 10 -15 34 0 21 -6 36 -15 40 -23 9 -18 60 13 134 48 113 71 247 28 165 -11 -23 -35 -43 -78 -64 -34 -17 -94 -54 -133 -81 l-70 -49 -6 28 c-17 73 -9 182 21 294 42 156 62 262 58 306 l-3 37 -42 -64 c-23 -36 -54 -95 -68 -132 -18 -46 -40 -79 -69 -106 -38 -35 -53 -41 -132 -56 -111 -20 -104 -21 -104 9 0 24 -2 24 -47 18 -55 -7 -56 -13 16 112 28 50 58 112 66 139 13 44 13 52 0 73 -29 44 -68 23 -115 -63 -12 -23 -57 -70 -99 -105 -42 -35 -98 -84 -125 -109 -60 -55 -160 -179 -152 -188 9 -9 90 33 153 79 30 22 57 38 60 35 3 -3 -16 -30 -41 -60 -42 -48 -46 -57 -36 -77 11 -19 18 -21 56 -15 l45 6 -63 -51 c-70 -57 -108 -95 -108 -109 0 -20 113 34 238 113 41 27 47 28 160 25 l117 -3 -40 -21 c-22 -12 -60 -27 -85 -34 -72 -19 -162 -62 -152 -72 6 -6 46 -12 91 -15 58 -4 79 -9 72 -16 -19 -19 -12 -26 27 -32 62 -11 62 -11 49 -44 -18 -47 -1 -56 96 -53 47 1 77 -2 72 -7 -6 -5 -45 -34 -89 -65 -59 -42 -74 -57 -62 -62 33 -13 122 8 205 47 46 21 86 38 87 36 6 -6 -50 -90 -82 -123 -44 -46 -90 -78 -193 -132 -52 -28 -88 -53 -82 -56 6 -4 51 -10 99 -13 79 -5 150 3 207 23 41 14 -17 -34 -78 -64 l-58 -30 52 -12 c70 -17 214 -8 312 20 43 12 81 19 83 17 17 -17 -186 -132 -269 -153 -78 -20 -86 -28 -51 -50 l27 -18 -24 -7 c-21 -5 -19 -7 21 -19 38 -11 66 -10 175 4 72 9 144 16 160 16 l30 -1 -58 -55 c-113 -106 -232 -143 -395 -124 -66 8 -104 19 -156 45 -38 19 -72 33 -75 30 -12 -12 42 -96 108 -167 83 -89 175 -161 246 -193 l50 -23 -43 -11 c-65 -18 -123 -5 -187 41 -40 29 -55 35 -55 23 0 -29 27 -80 60 -110 29 -28 77 -105 65 -105 -3 0 -34 23 -70 50 -41 33 -80 76 -111 123 -55 85 -92 127 -112 127 -19 0 -10 -77 22 -185 34 -112 46 -169 38 -177 -12 -12 -107 77 -138 129 l-29 48 -3 -32 c-8 -81 48 -170 142 -223 28 -17 46 -30 40 -30 -22 0 -147 42 -170 56 -31 21 -71 85 -79 128 -13 64 -65 67 -65 4 0 -44 23 -87 83 -157 69 -81 94 -121 74 -121 -14 0 -169 66 -259 111 l-48 23 0 64 c0 68 -6 86 -54 147 l-31 39 0 156 c-1 143 -3 160 -27 220 -48 124 -75 166 -126 203 -61 44 -94 86 -122 157 -22 56 -80 160 -109 194 -9 10 -67 43 -130 72 l-114 54 7 113 c4 61 10 127 14 145 l7 33 89 -97 c51 -56 97 -117 108 -143 10 -25 24 -57 30 -71 l11 -25 12 28 12 29 48 -54 c26 -29 62 -83 78 -120 31 -71 47 -85 47 -43 0 34 11 32 78 -14 75 -51 92 -70 145 -171 81 -152 126 -290 148 -455 6 -49 15 -96 18 -103 4 -7 20 44 35 112 24 108 27 142 24 248 -3 110 -6 129 -31 179 -40 82 -131 175 -252 259 -158 109 -179 141 -244 369 -47 165 -67 209 -84 192 -8 -8 -11 -49 -10 -119 l1 -107 -108 105 c-67 65 -111 116 -115 133 -10 37 -2 90 35 249 17 72 29 132 27 135 -6 5 -39 -96 -67 -207 -11 -47 -23 -92 -26 -99 -3 -9 -20 10 -44 50 -48 81 -113 155 -127 146 -7 -5 -8 -19 -2 -44 5 -21 9 -48 9 -60 0 -22 -1 -21 -47 9 -27 18 -53 39 -60 48 -7 8 -31 71 -53 139 -51 154 -72 197 -103 205 -16 4 -35 25 -56 63 l-32 58 6 -80 c3 -44 8 -90 11 -102 2 -12 0 -24 -5 -27 -11 -7 -30 15 -75 91 -40 68 -120 161 -130 152 -3 -3 17 -54 45 -113 48 -102 57 -145 33 -153 -6 -2 -62 65 -124 149 -62 84 -136 179 -163 211 -27 32 -47 60 -45 63 3 2 33 -16 67 -41 l61 -45 0 45 c0 25 -7 62 -15 82 -8 20 -14 38 -12 39 2 2 26 -12 54 -31 45 -30 53 -41 68 -91 15 -52 18 -55 32 -41 14 14 18 14 34 -6 16 -19 20 -20 29 -7 18 28 10 97 -20 177 -33 87 -72 140 -125 171 -40 24 -50 17 -30 -21 13 -25 10 -24 -38 12 -42 32 -141 81 -162 81 -15 0 1 -23 51 -71 90 -88 84 -93 -43 -27 -65 33 -122 63 -128 68 -17 12 -105 31 -116 24 -6 -3 8 -19 30 -36 23 -16 41 -34 41 -39 0 -21 -50 -7 -93 26 -57 44 -86 55 -143 55 -52 0 -56 -11 -11 -39 l32 -21 -55 0 c-59 0 -92 -13 -75 -29 6 -5 35 -19 65 -32 68 -28 148 -78 175 -109 l20 -23 -20 7 c-11 5 -33 12 -49 17 -25 7 -28 6 -23 -12 5 -19 4 -20 -16 -5 -57 41 -106 64 -144 69 -24 3 -43 2 -43 -1 0 -4 23 -23 51 -42 29 -19 47 -36 42 -37 -19 -7 -236 88 -283 122 -52 38 -150 140 -150 156 0 12 9 7 70 -36 25 -18 83 -51 130 -74 l85 -41 -39 32 c-138 115 -330 324 -385 419 -23 40 -53 139 -42 139 4 0 30 -30 58 -67 56 -73 112 -129 156 -156 26 -17 27 -17 27 0 -1 24 -33 95 -68 146 -183 271 -222 344 -137 257 31 -32 41 -37 57 -29 10 6 35 9 56 7 33 -3 39 -8 59 -50 26 -55 45 -60 70 -20 35 54 45 54 79 -3 14 -25 30 -45 34 -45 5 0 21 16 36 35 14 19 29 35 33 35 4 0 18 -10 31 -22 l23 -21 87 21 88 21 43 -20 c24 -11 61 -29 82 -39 38 -18 39 -18 90 6 29 13 57 24 63 24 18 0 103 79 119 111 29 56 22 61 -52 33 -117 -44 -242 -30 -325 36 -43 35 -46 35 -70 14 -15 -14 -20 -15 -34 -3 -11 9 -42 14 -85 14 -78 0 -98 13 -156 103 -29 46 -36 51 -53 42 -13 -7 -20 -21 -20 -43 l-1 -32 -15 28 c-8 15 -23 27 -35 27 -11 0 -30 12 -43 26 -20 24 -24 25 -45 13 -20 -13 -24 -12 -45 14 -12 15 -27 27 -34 27 -24 0 -81 70 -88 107 -4 21 -10 43 -14 48 -4 6 -11 21 -15 35 -4 14 -16 43 -25 65 -10 22 -23 60 -28 85 -12 49 -15 51 40 -28 55 -81 111 -133 125 -118 3 3 -13 40 -35 83 -22 43 -50 102 -62 132 l-21 54 57 -56 c88 -88 94 -78 33 52 -61 129 -141 381 -120 381 3 0 30 -38 59 -85 29 -46 84 -117 122 -157 l70 -73 -40 85 c-64 138 -91 271 -70 349 6 23 13 41 16 39 2 -3 23 -61 47 -131 49 -140 57 -154 106 -174 31 -13 36 -13 47 1 17 24 28 20 71 -27 36 -39 71 -110 89 -183 7 -29 133 -164 153 -164 27 0 7 41 -57 120 -46 56 -85 133 -80 156 6 29 69 -28 94 -85 27 -60 59 -101 80 -101 10 0 10 10 -1 48 -8 26 -15 51 -15 55 0 5 24 -11 53 -36 89 -75 190 -124 146 -71 -10 13 -11 18 -2 21 7 2 9 11 6 19 -4 10 10 7 48 -11 29 -13 55 -22 58 -20 2 3 -24 34 -59 70 -34 36 -60 68 -57 71 2 3 31 -11 63 -31 59 -36 140 -65 178 -65 18 0 19 2 6 11 -22 16 106 2 139 -14 14 -8 50 -29 79 -47 29 -18 55 -30 59 -26 9 8 -23 67 -79 146 -21 30 -62 88 -91 129 -28 41 -58 76 -64 79 -20 6 -16 -60 7 -119 12 -28 18 -54 14 -58 -13 -13 -102 101 -154 200 -56 105 -88 135 -82 74 7 -66 36 -163 70 -227 10 -21 -31 -4 -60 25 -24 22 -54 77 -99 180 -35 81 -67 147 -70 147 -19 0 -17 -71 6 -195 l7 -40 -37 35 c-20 19 -57 76 -82 125 -61 122 -79 145 -109 145 -25 0 -26 0 -19 -65 6 -54 4 -69 -9 -84 -10 -11 -20 -31 -24 -46 -7 -26 -11 -22 -82 79 -128 181 -156 247 -130 297 l12 22 19 -24 c23 -29 23 -27 5 53 -14 58 -19 126 -17 188 1 19 7 11 25 -32 25 -62 78 -149 102 -169 10 -9 9 1 -6 36 -11 26 -27 86 -35 133 -17 97 -21 287 -5 277 6 -3 10 -18 10 -33 1 -49 54 -186 99 -254 25 -37 46 -66 48 -65 1 2 -16 66 -37 142 -22 77 -45 176 -52 221 -10 71 -10 87 5 125 10 24 26 55 37 69 16 21 22 23 39 13 16 -10 21 -9 34 10 14 21 15 20 21 -28 12 -93 28 -171 36 -184 12 -21 30 78 31 172 l1 82 15 -35 c20 -46 21 -47 36 -26 11 15 16 11 42 -44 42 -88 50 -91 72 -30 l20 52 30 -69 c16 -37 38 -92 49 -121 15 -43 22 -52 39 -50 17 3 21 12 25 64 5 56 9 66 50 110 47 52 54 54 160 57 l65 2 5 -57 c6 -68 27 -96 58 -79 11 6 26 27 34 46 12 35 13 36 63 33 43 -3 50 -6 47 -23 -1 -11 -5 -56 -9 -99 -5 -70 -4 -81 12 -93 32 -22 45 -15 57 33 10 37 19 48 44 59 18 7 36 24 41 37 6 17 9 5 13 -52 l5 -75 30 0 c26 0 30 5 38 38 6 22 21 46 38 60 16 12 41 31 55 43 23 18 32 19 75 10 43 -9 49 -13 49 -35 0 -14 12 -37 26 -52 25 -26 25 -28 10 -63 -12 -29 -13 -41 -4 -55 15 -24 0 -96 -41 -211 -29 -80 -51 -119 -125 -220 -45 -62 -50 -178 -6 -125 7 9 39 38 72 67 l59 51 -21 -54 c-12 -30 -40 -97 -62 -149 -34 -78 -42 -110 -46 -176 -2 -46 0 -84 5 -87 5 -3 28 29 51 71 23 42 60 100 83 127 53 63 83 128 104 228 10 43 21 75 25 70 4 -4 19 -44 34 -89 15 -45 33 -89 40 -99 12 -17 14 -15 26 19 14 42 10 90 -15 236 -11 62 -15 132 -13 201 3 97 6 111 36 169 37 70 119 193 151 227 12 12 21 34 21 49 0 24 -3 26 -27 20 -16 -4 -57 -20 -92 -37 -35 -16 -66 -28 -68 -25 -4 3 15 46 104 236 44 93 63 147 92 260 10 41 31 102 46 135 16 33 41 101 57 150 16 50 58 158 93 240 35 83 69 172 76 198 10 40 22 58 75 104 35 31 64 60 64 65 0 4 -18 8 -41 8 -45 0 -45 -5 -11 93 16 48 43 74 62 62 16 -10 12 -299 -5 -388 -28 -145 -16 -311 36 -521 16 -66 27 -121 25 -123 -5 -5 -60 138 -74 192 -6 22 -14 67 -17 100 -4 33 -13 70 -21 83 -15 24 -58 30 -70 10 -23 -38 12 -226 81 -432 58 -173 78 -253 66 -274 -5 -8 -21 23 -44 80 -20 52 -54 118 -74 148 -20 30 -56 84 -80 120 l-43 65 0 -60 c0 -33 7 -100 16 -149 14 -75 15 -98 4 -140 -7 -28 -16 -127 -20 -221 -8 -155 -11 -180 -45 -284 -19 -63 -34 -121 -33 -128 4 -17 102 150 118 202 7 22 19 76 26 120 12 79 12 78 13 -117 1 -109 5 -198 10 -198 4 0 17 38 27 85 19 88 33 109 35 53 1 -18 4 -94 8 -168 l6 -135 18 55 c26 81 40 196 32 270 -3 36 -20 122 -36 191 -16 70 -32 156 -35 190 -5 63 -5 64 10 31 36 -77 77 -231 85 -316 5 -50 15 -112 21 -138 12 -48 9 -266 -5 -320 -11 -41 11 -35 34 10 35 69 44 140 37 288 -3 77 -9 164 -14 194 -7 58 3 173 18 200 11 17 11 16 14 -120 2 -72 9 -101 44 -191 22 -58 50 -154 61 -215 25 -132 25 -124 2 -124 -40 0 -51 -26 -51 -118 0 -113 14 -196 51 -307 31 -93 44 -113 93 -148 28 -20 29 -20 24 -1 -3 10 -9 28 -13 39 -5 11 23 -9 61 -46 98 -92 143 -124 156 -111 11 11 7 19 -128 207 -88 123 -135 217 -141 284 l-5 46 21 -32 c11 -17 30 -51 42 -74 24 -48 101 -133 169 -188 25 -20 84 -77 132 -126 l87 -90 20 -99 c15 -68 21 -138 22 -225 0 -69 4 -189 8 -266 5 -77 5 -174 1 -215 -8 -89 -39 -269 -50 -289 -4 -7 -14 24 -23 74 -12 63 -22 91 -35 101 -11 7 -23 25 -26 39 -8 31 -24 32 -31 3 -16 -70 -35 -188 -35 -220 0 -70 32 -51 61 37 13 38 14 33 21 -109 10 -232 25 -276 49 -144 10 57 20 80 46 109 45 49 68 108 83 207 13 83 28 108 52 84 8 -8 4 -35 -16 -99 -52 -170 -45 -207 26 -131 l41 43 -5 -70 c-3 -44 -19 -109 -42 -175 -20 -58 -36 -112 -36 -119 0 -20 109 116 132 166 18 38 92 113 112 113 12 0 -24 -74 -73 -150 -83 -128 -151 -263 -141 -280 7 -12 13 -9 31 15 13 15 55 65 95 111 136 155 172 224 204 384 25 126 19 160 -29 160 -25 0 -34 -8 -60 -52 -16 -29 -45 -70 -64 -91 l-34 -39 -8 237 c-4 130 -5 239 -1 242 3 3 34 -24 68 -62 66 -72 81 -73 49 -3 -22 49 -121 304 -121 313 0 4 -22 66 -49 138 -69 184 -102 314 -113 437 -4 58 -13 120 -19 138 -11 35 -129 218 -185 287 -78 98 -126 215 -169 415 -26 117 -45 358 -33 415 2 13 21 -25 52 -100 50 -126 83 -185 103 -185 9 0 11 14 7 48 -5 44 -4 46 10 28 9 -11 17 -25 17 -30 1 -6 7 11 13 39 l12 49 23 -87 c13 -48 27 -90 32 -92 8 -6 29 81 29 120 0 28 -81 314 -105 371 -9 21 -33 102 -54 179 -21 77 -48 165 -59 195 l-22 55 28 -35 c15 -19 44 -53 65 -75 l38 -40 -6 35 c-4 19 -18 62 -30 95 -13 33 -34 89 -46 125 -12 36 -30 76 -39 90 -22 31 -60 107 -60 117 0 4 20 -14 45 -42 43 -49 44 -49 45 -22 0 15 -18 63 -40 107 -22 44 -40 87 -40 95 0 9 -10 39 -21 66 -12 27 -19 52 -17 55 3 3 22 -5 42 -17 32 -19 36 -19 36 -4 0 9 -25 45 -55 78 -39 44 -60 78 -71 115 -9 30 -13 56 -10 60 4 3 24 -5 47 -17 22 -13 43 -20 46 -17 3 3 -22 61 -55 128 -43 85 -64 143 -72 188 -8 51 -40 558 -40 634 0 14 4 13 31 -6 61 -45 179 -23 179 34 0 14 -8 18 -32 18 -70 0 -103 18 -165 88 l-60 67 -7 195 c-6 168 -5 193 7 178 16 -21 27 -23 27 -6 0 6 9 31 21 55 22 46 53 57 82 28z m-2089 -109 c98 -23 109 -37 123 -152 6 -54 15 -116 18 -136 7 -36 7 -37 -31 -44 -45 -9 -254 30 -266 49 -16 26 -50 146 -46 163 4 16 7 15 18 -9 10 -21 20 -27 39 -25 30 4 39 27 40 111 1 66 3 67 105 43z m-272 -143 c3 -60 4 -109 4 -110 -1 -1 -49 1 -106 5 -120 8 -116 4 -81 105 19 58 33 64 42 18 8 -38 32 -67 48 -57 5 4 13 23 16 44 3 20 8 52 11 70 4 27 9 32 33 32 l29 0 4 -107z m-260 77 c-2 -8 -10 -46 -19 -85 -8 -38 -15 -71 -17 -72 -3 -3 -169 36 -173 41 -2 2 1 16 7 31 10 27 11 28 75 21 71 -7 85 4 33 24 -58 23 -64 33 -32 47 41 18 130 13 126 -7z m-1212 -5 c0 -3 -15 -11 -34 -19 l-34 -14 11 -51 c7 -40 7 -62 -4 -93 l-13 -41 37 -31 c38 -32 57 -76 57 -131 0 -22 10 -41 34 -64 33 -32 33 -33 18 -64 -15 -30 -15 -31 21 -62 21 -18 37 -40 37 -49 0 -10 14 -31 30 -48 29 -29 37 -59 15 -59 -5 -1 -50 2 -98 6 -86 7 -89 8 -165 62 -109 77 -156 127 -195 202 -64 122 -100 268 -69 279 7 2 12 10 12 17 0 33 111 106 220 145 51 18 120 27 120 15z m508 -35 c43 -11 111 -31 152 -44 l75 -24 17 -53 c17 -49 17 -54 1 -71 -9 -10 -18 -42 -21 -72 -3 -42 -8 -55 -23 -59 -47 -13 -35 -101 27 -191 29 -43 44 -76 44 -96 0 -17 5 -40 10 -51 10 -18 6 -19 -118 -19 -128 0 -129 0 -140 25 -9 19 -19 25 -43 25 -25 0 -30 4 -26 18 2 9 6 24 8 32 5 19 -52 39 -116 39 -50 1 -54 16 -5 23 19 2 27 11 34 40 8 33 6 40 -21 71 -17 19 -32 40 -34 45 -2 6 -26 21 -54 34 -35 16 -51 30 -55 48 -4 15 -19 32 -40 42 -19 9 -39 19 -45 22 -6 3 -3 10 6 18 16 13 27 42 49 125 9 37 17 45 63 67 66 31 151 33 255 6z m758 -290 l49 -21 -23 -19 -23 -19 24 -16 c20 -13 36 -14 93 -6 38 6 142 7 232 4 148 -6 166 -8 183 -26 26 -28 24 -34 -15 -41 -36 -7 -50 -27 -41 -57 4 -12 24 -21 63 -30 31 -6 71 -15 87 -19 30 -8 29 -8 -14 -15 -51 -9 -84 -37 -79 -68 2 -18 14 -25 63 -36 33 -8 62 -15 63 -17 9 -7 -24 -74 -37 -78 -9 -2 -28 -7 -42 -10 -48 -10 -49 -64 -3 -85 l26 -12 -26 -20 c-14 -11 -26 -29 -26 -39 0 -25 -19 -30 -114 -30 -46 0 -107 -5 -137 -10 l-53 -10 -173 87 c-145 73 -173 90 -173 109 0 26 -15 40 -66 58 -34 13 -36 15 -13 15 26 1 39 17 39 47 0 7 -15 20 -34 28 -20 8 -42 28 -50 45 -9 17 -25 35 -35 41 -15 7 -19 20 -18 52 1 33 -7 55 -31 92 -18 28 -32 55 -32 61 0 6 14 21 30 33 24 18 30 20 30 7 0 -18 5 -19 30 -5 37 20 126 40 161 36 20 -2 58 -14 85 -26z m-585 -524 c52 -8 108 -18 124 -21 57 -14 228 -109 288 -159 104 -89 181 -146 216 -161 42 -19 41 -19 41 7 0 15 -31 54 -92 115 -51 51 -86 93 -78 93 28 -1 145 -56 216 -103 40 -25 89 -54 109 -64 35 -17 37 -17 50 0 21 29 25 5 10 -49 -8 -27 -24 -97 -35 -155 -11 -58 -35 -147 -55 -197 -39 -101 -43 -127 -20 -118 8 3 21 9 29 12 22 8 -8 -112 -50 -207 -19 -42 -34 -82 -34 -88 0 -16 27 -14 56 5 13 9 27 14 30 11 10 -9 -35 -166 -65 -225 -28 -56 -43 -72 -140 -150 -54 -44 -52 -54 8 -46 l50 6 -16 -52 c-12 -40 -13 -58 -4 -77 12 -27 9 -35 -40 -108 -17 -25 -50 -86 -73 -137 l-43 -92 -23 70 c-24 71 -57 132 -93 172 -28 31 -37 28 -37 -13 0 -21 -6 -37 -17 -43 -14 -8 -15 -21 -9 -88 17 -196 18 -235 12 -288 -8 -61 -21 -66 -32 -10 -8 43 -103 189 -114 177 -5 -4 -10 -82 -12 -173 -4 -164 -4 -166 -41 -252 -20 -48 -37 -95 -37 -104 0 -27 -11 -9 -40 64 -28 73 -79 156 -131 212 l-31 35 6 -39 c4 -21 19 -77 33 -125 59 -197 62 -218 39 -260 -13 -23 -13 -23 -40 24 -41 69 -51 55 -51 -66 0 -75 -3 -103 -12 -102 -20 4 -32 -57 -34 -175 -1 -50 -6 -89 -10 -86 -5 3 -9 14 -9 25 0 20 -26 79 -35 79 -9 0 -27 -86 -34 -164 -8 -79 -8 -80 -20 -48 -7 17 -17 32 -21 32 -19 0 -32 -75 -26 -146 4 -41 3 -74 -1 -74 -4 0 -16 12 -26 28 -11 15 -47 48 -80 75 -90 69 -107 85 -160 155 l-48 62 38 17 c21 9 69 17 110 17 77 2 106 17 124 64 5 12 24 30 44 39 37 18 45 37 19 47 -29 11 -109 6 -130 -8 -13 -10 -25 -11 -35 -5 -24 15 -46 10 -52 -12 -4 -16 -10 -20 -24 -14 -10 5 -55 9 -100 9 -45 1 -83 3 -86 6 -11 13 -107 322 -107 344 0 20 6 27 28 32 15 3 39 10 55 16 20 8 44 7 89 -2 36 -8 63 -10 65 -4 12 34 21 38 47 20 49 -31 227 -39 269 -12 38 25 29 40 -26 46 -37 5 -55 14 -85 43 -27 27 -47 37 -69 37 -24 0 -37 8 -54 31 -21 30 -29 31 -69 15 -10 -4 -22 4 -35 24 -11 16 -37 37 -58 45 -22 9 -45 28 -55 45 -13 23 -24 30 -49 30 l-32 0 -3 73 c-3 69 -4 72 -28 72 -23 0 -26 -5 -31 -50 l-5 -50 -27 58 c-23 48 -31 57 -53 57 l-27 0 6 103 c6 95 21 195 48 326 l11 53 73 -151 c41 -83 78 -151 84 -151 16 0 22 18 12 37 -16 28 -41 111 -41 135 0 29 10 17 55 -67 47 -87 159 -223 163 -200 2 9 -7 33 -21 53 -34 53 -69 123 -64 129 3 3 10 -4 16 -15 6 -11 24 -23 40 -27 15 -3 41 -19 56 -35 16 -17 39 -30 50 -30 16 0 33 -16 58 -55 20 -30 48 -62 62 -71 24 -16 27 -16 45 1 20 18 21 18 48 -8 42 -40 60 -35 67 17 4 24 4 58 0 74 -7 34 -34 46 -51 24 -8 -12 -16 -5 -39 34 -53 93 -78 106 -97 52 l-11 -31 -20 39 c-10 21 -47 66 -81 99 -90 90 -119 151 -155 335 -16 85 -33 178 -37 206 -5 41 -11 54 -29 62 -46 21 -44 127 5 222 l18 35 9 -35 c8 -29 14 -36 39 -38 26 -3 33 -10 48 -53 10 -27 28 -57 40 -65 138 -99 197 -155 232 -220 22 -40 49 -49 72 -23 18 18 18 18 35 -10 14 -25 24 -29 72 -33 41 -4 62 -11 83 -30 37 -34 174 -108 201 -108 12 0 21 6 21 15 0 19 29 19 54 0 30 -23 55 -18 74 14 18 32 37 41 94 41 21 0 70 15 115 36 70 33 76 37 53 44 -37 12 -100 11 -140 0 -82 -24 -296 40 -376 114 -25 23 -67 73 -93 111 -29 43 -55 71 -68 73 -12 2 -26 16 -33 33 -9 21 -22 32 -42 36 -18 3 -33 15 -38 28 -15 40 -46 40 -68 0 -9 -18 -12 -16 -27 23 -15 37 -21 42 -50 42 -31 0 -33 2 -40 48 -4 26 -18 75 -32 110 l-25 63 48 57 c26 31 49 59 51 61 2 3 10 -4 17 -15 13 -16 18 -17 35 -7 18 11 23 10 37 -12 9 -13 26 -27 37 -31 12 -4 33 -15 47 -26 81 -62 102 -71 161 -65 53 5 61 2 107 -28 66 -45 106 -60 189 -74 38 -7 87 -18 109 -26 45 -15 62 -6 89 48 17 35 11 51 -14 37 -14 -7 -23 -4 -37 11 -13 14 -25 18 -45 14 -15 -3 -30 -1 -34 4 -3 7 -28 8 -64 4 -98 -10 -126 0 -174 63 -23 29 -47 54 -53 54 -6 0 -21 11 -34 25 -14 15 -35 25 -50 25 -15 0 -35 9 -46 21 -24 26 -23 101 2 189 16 56 15 77 -2 158 -6 32 -6 32 30 32 l37 0 -21 30 c-25 36 -28 35 101 16z m2649 -761 c-12 -25 -26 -45 -31 -45 -13 0 -12 2 19 77 23 58 27 64 30 40 2 -15 -6 -48 -18 -72z m214 -79 c22 -46 26 -69 26 -141 0 -48 9 -130 21 -187 13 -61 19 -123 17 -157 -3 -31 6 -137 19 -236 13 -98 22 -184 20 -190 -6 -16 -35 82 -51 170 -18 101 -32 210 -50 402 -9 92 -21 163 -30 182 -9 16 -16 47 -16 68 0 42 11 143 16 143 1 0 14 -24 28 -54z m413 -2021 c20 0 79 -99 164 -271 39 -78 50 -109 47 -138 -3 -36 -9 -28 -133 180 -141 234 -153 261 -153 314 0 34 0 34 29 -25 19 -39 35 -60 46 -60z m-2579 -2938 c13 -12 58 -64 100 -114 67 -82 92 -106 92 -88 0 16 -32 78 -74 144 -26 40 -45 75 -42 78 8 9 124 -58 159 -92 20 -20 48 -68 71 -124 21 -50 41 -91 44 -91 2 0 2 23 0 50 -3 28 -2 50 1 50 3 0 21 -27 39 -60 18 -33 35 -60 39 -60 16 0 -8 104 -40 172 -21 42 -37 81 -37 87 0 18 32 0 91 -51 31 -26 60 -48 64 -48 12 0 -5 51 -26 81 -10 15 -19 29 -19 31 0 9 73 -2 88 -13 103 -82 154 -150 263 -354 64 -121 78 -130 64 -39 -9 60 -98 231 -183 350 -40 56 -72 106 -72 112 0 22 40 -2 96 -59 32 -32 62 -59 67 -59 4 0 11 9 15 20 7 19 10 16 32 -22 13 -24 38 -60 57 -81 18 -20 33 -43 33 -51 0 -22 112 -242 117 -229 6 17 -12 102 -31 146 -16 36 -16 37 5 37 18 0 21 5 17 35 -2 19 0 35 6 35 18 0 46 -33 46 -55 0 -28 42 -236 69 -343 12 -44 21 -83 21 -86 0 -3 -24 -6 -54 -6 -69 0 -83 -6 -102 -41 -26 -51 -47 -38 -122 74 -72 108 -95 148 -135 237 -26 57 -78 121 -84 103 -2 -6 11 -35 30 -65 19 -29 56 -96 82 -148 26 -52 56 -107 66 -122 25 -35 24 -40 -7 -32 -24 6 -25 5 -16 -13 6 -10 31 -38 56 -61 25 -23 46 -44 46 -46 0 -2 -18 -16 -40 -31 l-41 -28 -47 43 c-26 25 -123 121 -216 215 -96 96 -161 155 -150 136 23 -42 309 -347 392 -419 57 -49 130 -91 160 -92 22 0 13 29 -12 36 -24 6 -51 48 -41 65 4 5 21 9 40 9 27 0 44 -9 77 -42 37 -37 43 -39 47 -23 2 11 9 24 17 28 19 11 18 26 -3 49 -16 18 -16 20 3 37 25 25 78 36 91 19 5 -7 22 -46 37 -85 15 -40 32 -75 37 -79 16 -10 9 29 -16 90 -13 33 -23 62 -20 64 2 2 23 -14 47 -37 24 -22 56 -45 71 -50 31 -12 36 -44 11 -80 -15 -21 -15 -25 2 -57 10 -19 22 -34 26 -34 5 0 8 48 8 107 l0 106 26 -24 c14 -13 35 -43 46 -66 21 -45 35 -54 43 -28 17 52 15 52 52 10 68 -76 73 -97 73 -313 l0 -194 -30 -29 c-29 -29 -31 -30 -107 -23 -77 6 -104 15 -193 67 -40 23 -58 26 -152 29 -64 2 -111 -1 -117 -7 -6 -6 -14 -25 -17 -43 -6 -29 -4 -32 19 -32 20 0 30 -9 47 -44 11 -25 36 -64 54 -88 56 -73 121 -180 145 -238 86 -209 103 -240 126 -240 31 0 79 42 111 96 25 43 25 46 13 113 l-12 69 37 79 c25 52 39 98 43 140 5 54 9 62 30 68 13 3 33 0 46 -6 25 -14 273 -268 299 -308 25 -37 24 -55 -2 -41 -11 6 -25 8 -30 5 -19 -12 -10 -34 25 -61 34 -25 45 -44 26 -44 -5 0 -37 16 -71 35 -35 20 -64 34 -65 33 -2 -2 0 -18 2 -35 5 -30 9 -33 40 -33 67 0 109 -39 84 -78 -7 -11 -17 -9 -50 13 -57 35 -77 26 -24 -11 23 -16 42 -37 43 -47 0 -15 -14 -52 -25 -65 -2 -2 -18 11 -36 28 -33 30 -74 48 -85 37 -3 -3 -3 -15 1 -26 5 -17 10 -19 24 -11 25 13 84 -57 69 -83 -14 -25 -26 -21 -33 13 -7 30 -31 41 -41 17 -2 -7 3 -30 11 -51 15 -36 15 -39 -2 -52 -21 -16 -53 -18 -53 -4 0 10 -52 40 -70 40 -20 0 -10 -39 13 -46 40 -14 -41 -24 -102 -14 -68 12 -131 13 -131 1 0 -4 43 -21 96 -37 l96 -29 -7 -40 c-17 -111 -18 -128 -5 -123 7 2 23 33 36 68 25 64 40 90 54 90 5 0 27 -35 51 -77 56 -104 156 -257 232 -357 74 -97 197 -246 204 -246 7 0 -23 47 -61 95 -18 22 -59 78 -91 125 -32 47 -83 120 -113 163 -56 81 -156 251 -166 285 -5 16 2 22 40 37 25 9 49 13 54 9 4 -5 35 -44 69 -86 33 -42 112 -130 175 -196 67 -70 125 -140 140 -170 14 -28 26 -53 26 -56 0 -2 -12 2 -27 9 -95 47 -112 23 -54 -74 42 -72 60 -129 61 -195 l0 -40 -32 31 c-48 44 -64 50 -153 54 -104 5 -108 -9 -29 -86 31 -31 55 -58 52 -60 -2 -3 -40 11 -84 30 -89 39 -110 42 -136 19 -17 -16 -16 -18 28 -52 51 -40 48 -46 -36 -56 -61 -8 -86 -19 -76 -34 7 -11 29 -17 121 -29 l60 -7 -54 -6 c-30 -3 -56 -10 -58 -16 -2 -6 8 -26 22 -43 l27 -31 -31 0 c-34 0 -45 -14 -55 -72 l-7 -38 -72 6 c-52 5 -82 2 -107 -8 l-35 -15 45 -20 c25 -11 73 -30 108 -44 34 -13 62 -27 62 -30 0 -10 -403 -19 -440 -10 -43 11 -78 23 -150 50 -30 12 -55 21 -56 21 -1 0 -20 25 -43 55 -22 30 -59 79 -81 109 -22 29 -68 75 -103 101 -34 27 -66 51 -70 55 -4 4 17 19 47 34 112 55 160 150 159 311 0 122 -13 151 -117 268 -107 121 -111 128 -96 182 16 57 9 72 -33 80 -43 8 -81 -10 -174 -85 -123 -98 -221 -206 -262 -289 -21 -42 -41 -87 -45 -101 -6 -21 0 -18 35 20 40 44 41 45 35 15 -20 -91 -18 -173 4 -247 17 -59 26 -75 39 -71 12 3 21 -9 33 -45 21 -57 72 -132 92 -132 10 0 8 15 -11 66 -26 73 -25 90 4 48 32 -47 101 -119 108 -112 4 3 -1 20 -10 38 -9 17 -15 35 -13 39 5 15 192 -83 212 -111 12 -17 24 -61 32 -124 13 -91 48 -193 62 -179 4 3 9 30 12 58 l5 52 45 -93 c40 -85 93 -152 120 -152 6 0 10 14 10 30 0 17 5 30 11 30 6 0 57 -33 113 -73 55 -40 117 -83 136 -94 19 -12 48 -35 64 -52 l30 -31 -31 0 c-18 0 -37 8 -49 21 -22 25 -89 69 -104 69 -14 0 5 -36 43 -79 38 -44 59 -95 51 -125 -5 -21 -13 -16 -97 68 -113 112 -177 164 -177 143 0 -19 56 -95 119 -161 25 -27 42 -47 36 -44 -5 3 -59 33 -118 67 -60 33 -111 61 -113 61 -12 0 33 -68 72 -110 48 -51 74 -104 73 -147 0 -26 -1 -26 -12 -9 -30 47 -64 80 -126 120 -43 28 -78 60 -101 94 -21 31 -41 51 -50 49 -20 -4 -18 -13 23 -132 35 -102 56 -205 40 -205 -4 0 -23 21 -42 45 -19 26 -56 57 -87 74 -56 30 -65 27 -38 -14 16 -25 16 -25 -15 -25 -17 0 -31 -3 -31 -7 0 -3 14 -30 30 -60 23 -41 30 -65 30 -108 0 -30 -3 -55 -6 -55 -17 0 -80 61 -117 113 -23 32 -43 53 -45 47 -3 -7 1 -59 8 -115 7 -57 9 -116 5 -131 -7 -27 -8 -26 -22 26 -8 30 -19 72 -24 93 -7 27 -15 37 -29 37 -17 0 -20 -7 -20 -46 l0 -45 -42 3 c-40 3 -43 5 -51 41 -17 72 -30 44 -42 -91 -4 -39 -11 -74 -15 -77 -5 -3 -14 11 -20 30 -6 19 -16 37 -21 40 -5 3 -26 -6 -46 -20 -21 -14 -41 -25 -45 -25 -5 0 -8 23 -8 50 0 70 -22 120 -53 120 -35 0 -37 7 -16 53 19 43 24 92 13 146 -11 56 -31 35 -54 -59 -12 -50 -26 -92 -30 -95 -4 -2 -10 37 -12 88 -5 89 -21 147 -41 147 -5 0 -11 -9 -14 -20 -9 -33 -23 -22 -23 18 0 45 -9 82 -21 82 -4 0 -16 -26 -26 -57 -19 -64 -27 -73 -61 -73 -26 0 -34 17 -57 116 -14 62 -14 71 5 147 15 58 23 131 27 248 6 178 3 210 -22 189 -12 -10 -15 -7 -21 14 -6 26 -19 32 -40 18 -7 -4 -13 -55 -17 -122 -6 -124 -23 -224 -38 -214 -5 3 -9 26 -9 52 0 28 -8 64 -20 87 -11 22 -20 43 -20 48 0 5 16 36 36 69 39 65 38 82 -4 54 -15 -9 -49 -28 -77 -41 -107 -50 -165 -162 -136 -264 11 -42 29 -35 36 13 5 32 11 43 21 39 10 -4 14 5 14 33 1 22 8 50 16 64 15 25 15 25 9 -10 -12 -71 -18 -188 -10 -226 6 -34 8 -37 19 -21 7 9 19 59 26 109 15 115 26 146 43 129 8 -8 12 -51 12 -132 0 -65 1 -119 3 -119 5 0 31 23 62 55 l30 30 0 -40 c0 -23 4 -45 9 -50 5 -6 7 -57 4 -117 -5 -99 -7 -108 -26 -108 -18 0 -19 -5 -14 -61 3 -34 10 -66 16 -72 6 -6 11 -15 11 -21 0 -20 -37 27 -70 89 -22 40 -45 70 -61 77 -14 6 -40 33 -57 60 -37 55 -56 55 -46 0 29 -169 73 -277 156 -390 22 -29 38 -56 35 -58 -2 -3 -45 29 -94 70 -134 110 -204 222 -234 370 -12 59 -27 102 -46 128 -15 22 -29 36 -31 30 -2 -6 4 -59 12 -118 8 -60 13 -110 11 -113 -3 -2 -14 4 -25 14 -27 24 -32 17 -19 -29 18 -64 90 -174 171 -262 68 -73 108 -129 108 -150 0 -15 -53 42 -109 116 -130 172 -156 200 -159 179 -5 -31 16 -76 70 -153 27 -37 46 -71 43 -74 -19 -19 -151 78 -230 170 -71 81 -84 75 -41 -18 30 -65 79 -113 186 -182 47 -30 111 -74 143 -98 31 -24 61 -44 65 -44 5 0 23 16 42 35 30 31 33 40 31 85 l-1 51 31 -18 c49 -29 52 -37 26 -76 -15 -22 -26 -56 -30 -89 -7 -67 -70 -180 -131 -234 -139 -125 -195 -164 -311 -222 -117 -58 -171 -76 -318 -102 -60 -11 -139 -29 -175 -39 -87 -26 -222 -42 -350 -43 -94 0 -105 2 -140 26 -62 43 -77 77 -77 181 1 81 5 100 39 185 22 55 48 147 62 219 19 100 34 145 74 227 28 56 70 153 94 216 63 161 158 376 189 425 42 67 141 167 189 190 24 13 67 28 95 34 38 9 53 18 57 33 3 11 0 24 -7 29 -22 15 -101 -2 -172 -37 -38 -19 -72 -33 -74 -30 -3 2 3 21 13 41 17 36 17 38 0 50 -15 11 -16 17 -6 31 36 50 54 81 68 122 28 78 63 146 89 174 14 15 25 30 25 33 0 3 -21 3 -47 -1 -52 -7 -118 -47 -137 -83 -11 -23 -18 -24 -114 -27 -86 -3 -102 -1 -104 13 -5 21 154 180 213 214 24 14 69 32 99 41 30 8 72 29 93 47 51 42 257 282 289 336 l17 29 -60 -12 c-70 -14 -89 -29 -129 -99 -41 -72 -72 -99 -107 -92 -19 4 -45 -3 -83 -23 -30 -15 -89 -44 -130 -64 -42 -19 -97 -51 -122 -70 -40 -31 -103 -55 -145 -56 -8 0 -13 14 -13 36 0 33 4 37 42 52 110 43 303 141 303 153 0 19 -45 14 -118 -13 l-58 -21 -30 32 -30 33 -109 -3 c-60 -2 -112 -1 -115 3 -3 3 1 22 9 42 8 20 13 43 10 50 -4 10 10 15 52 21 87 11 168 34 181 52 12 15 23 16 119 4 85 -11 108 -11 114 -1 6 9 26 11 74 6 61 -7 67 -6 90 17 27 27 99 67 121 67 33 0 12 18 -40 35 -38 11 -66 15 -88 10 -61 -15 -265 -5 -331 16 -76 23 -76 23 -76 -2 0 -17 -4 -20 -22 -15 -13 4 -75 18 -138 31 -165 36 -191 45 -103 38 74 -6 123 1 123 16 0 5 -36 19 -80 30 -44 12 -97 29 -117 38 l-38 17 30 5 c21 4 31 13 33 29 3 16 9 21 20 18 9 -2 27 -7 40 -11 34 -10 26 8 -23 53 -40 36 -45 46 -45 84 0 53 12 73 36 64 68 -26 170 -28 161 -2 -4 12 -157 62 -327 106 -146 38 -178 51 -288 118 -53 32 -151 80 -217 107 -207 83 -586 274 -673 338 -29 22 -68 59 -88 83 -31 38 -37 53 -41 108 -6 70 1 89 69 174 94 116 468 367 677 452 42 18 119 51 171 76 52 24 118 50 145 59 53 16 98 20 79 7 -31 -21 -71 -157 -74 -249 -1 -33 31 -7 56 45 27 53 73 107 119 138 29 19 170 34 254 27 39 -3 71 -8 71 -11 0 -2 -13 -32 -29 -66 -15 -33 -33 -73 -39 -88 -7 -16 -17 -28 -24 -28 -14 0 -53 -103 -69 -180 -5 -25 -7 -72 -4 -105 6 -54 5 -58 -9 -41 -14 17 -23 54 -59 226 l-14 65 -16 -37 c-10 -21 -17 -58 -17 -82 0 -32 -5 -48 -17 -55 -15 -8 -19 -28 -23 -108 l-5 -98 -23 73 c-12 39 -27 72 -32 72 -13 0 -23 -64 -17 -103 5 -29 4 -28 -13 11 -11 23 -21 42 -24 42 -2 0 -11 3 -20 6 -12 5 -15 -5 -18 -48 l-3 -53 -27 70 c-37 93 -86 165 -125 184 -25 13 -37 29 -54 76 -12 33 -29 65 -37 71 -12 9 2 15 69 30 72 17 84 22 87 42 4 23 -1 25 -58 22 -124 -6 -237 -54 -444 -190 -85 -55 -202 -126 -260 -157 -118 -62 -178 -118 -195 -179 -11 -36 -8 -45 31 -123 62 -123 106 -143 68 -32 -20 60 -25 116 -14 158 8 30 24 19 24 -15 0 -56 92 -202 127 -202 6 0 0 29 -13 65 -16 45 -24 87 -24 133 0 104 9 138 36 151 22 10 26 8 35 -17 6 -15 15 -38 21 -52 12 -33 24 -13 27 48 3 69 6 74 76 114 l65 36 0 -98 c0 -103 23 -198 75 -315 20 -44 91 -122 102 -112 2 3 -9 31 -26 63 -33 67 -91 250 -90 285 0 13 17 -25 38 -86 54 -161 174 -376 196 -353 8 8 -36 122 -84 219 -53 106 -52 127 2 47 26 -39 67 -81 107 -111 62 -47 174 -107 198 -107 7 0 46 -32 87 -71 42 -40 78 -69 82 -66 3 4 -13 31 -36 62 -23 30 -39 55 -35 55 12 0 77 -66 137 -140 64 -78 79 -93 112 -108 65 -31 117 -52 130 -52 17 0 20 16 5 25 -6 4 -8 21 -4 41 5 25 3 34 -7 34 -8 0 -23 8 -34 16 -19 15 -18 16 23 11 36 -4 42 -2 42 13 0 10 -11 27 -25 38 -27 22 -32 34 -12 31 49 -6 43 34 -23 146 -26 44 -59 107 -73 140 -26 58 -60 185 -52 193 2 2 20 -29 41 -69 20 -41 56 -102 80 -135 52 -73 126 -143 132 -125 2 6 -21 64 -51 129 -40 84 -59 138 -67 191 -6 40 -9 75 -7 77 2 2 18 -35 36 -82 25 -65 44 -98 78 -131 24 -25 47 -42 50 -40 3 3 -16 58 -42 122 -26 64 -45 119 -42 122 3 2 14 -15 25 -39 18 -42 48 -76 58 -66 2 3 -9 83 -27 179 -49 278 -33 388 70 462 56 41 60 41 112 27 l36 -10 5 -68 c3 -39 16 -94 31 -132 15 -35 25 -65 23 -67 -1 -2 -19 12 -39 29 -35 31 -37 38 -48 125 -12 95 -24 118 -53 107 -37 -14 -46 -95 -22 -197 15 -64 48 -118 114 -189 43 -47 80 -64 68 -33 -13 34 11 11 43 -40 32 -53 92 -115 111 -115 4 0 15 -3 24 -6 32 -12 15 25 -69 151 -47 70 -84 129 -83 130 4 3 119 -52 140 -67 46 -33 21 38 -42 121 -22 30 -39 56 -36 58 6 7 68 -23 105 -51 61 -46 61 -27 -3 103 -20 41 -36 79 -36 85 0 6 22 -11 48 -37 26 -26 54 -47 61 -47 18 0 8 50 -24 115 -22 46 -23 51 -8 67 16 18 17 18 38 -2 31 -30 37 -25 29 25 -4 30 -2 50 6 60 26 32 37 16 43 -62 9 -103 34 -189 52 -172 11 11 25 124 25 202 0 52 -7 98 -20 138 -12 34 -19 63 -17 66 3 2 26 -21 52 -52 38 -44 50 -53 61 -44 8 6 14 18 14 25 0 25 28 15 54 -19 15 -19 26 -36 26 -39 0 -4 -15 -11 -32 -17 l-33 -12 57 -52 c43 -38 66 -70 88 -119 16 -37 30 -72 30 -78 0 -11 -58 26 -72 45 -17 23 -6 -23 16 -72 15 -32 67 -97 134 -170 60 -65 114 -128 120 -140 13 -24 14 -92 4 -163 l-7 -45 -28 35 -29 35 5 -40 c2 -22 14 -62 26 -87 19 -42 52 -171 51 -201 -1 -20 -41 35 -78 108 -41 79 -53 69 -27 -22 24 -82 65 -149 132 -216 58 -56 99 -77 155 -77 15 0 30 -5 33 -11 5 -7 -12 -10 -54 -8 -33 1 -62 -2 -63 -7 -3 -16 96 -46 152 -46 37 1 75 10 114 27 32 14 86 32 119 40 l61 14 135 -46 c75 -25 137 -46 138 -47 2 -1 -10 -23 -27 -49 -39 -63 -81 -81 -226 -101 -138 -18 -271 -20 -364 -5 -68 11 -255 -4 -265 -22 -8 -12 57 -26 150 -34 44 -3 100 -9 125 -12 72 -10 12 -21 -86 -15 -109 6 -137 -9 -57 -31 32 -9 93 -20 136 -26 43 -5 81 -11 83 -14 3 -3 -26 -22 -63 -43 l-68 -39 52 -3 c28 -2 78 4 111 12 33 9 99 20 148 25 91 10 225 42 279 67 138 66 454 285 486 337 26 43 24 58 -11 102 -16 21 -30 43 -30 50 0 17 -36 48 -50 43 -7 -2 -28 -28 -49 -58 -32 -48 -40 -55 -66 -53 -17 1 -88 5 -160 9 -71 4 -137 12 -146 18 -45 31 -70 77 -80 143 -15 105 -65 226 -117 284 -84 93 -249 146 -419 134 l-91 -6 -5 28 c-3 15 -8 51 -12 78 -10 80 -24 112 -76 177 -52 65 -58 85 -35 121 20 32 29 184 16 259 -6 35 -25 96 -41 136 -35 88 -35 92 -6 92 17 0 31 -16 62 -71 43 -76 58 -72 31 8 -20 57 -20 63 -2 63 9 0 26 -35 46 -95 17 -52 34 -95 37 -95 2 0 2 35 -1 78 l-7 77 19 -35 c10 -19 29 -73 42 -120 12 -47 26 -94 30 -105 18 -45 23 19 11 121 -8 62 -10 130 -5 170 l7 68 28 -33 c15 -19 43 -67 60 -108 35 -78 49 -91 49 -43 0 65 -22 131 -61 180 -21 27 -39 52 -39 55 0 10 75 -26 98 -48z m1173 -323 c10 -22 25 -83 34 -135 20 -121 24 -131 37 -99 6 14 10 69 10 124 l-1 99 22 -21 c12 -11 48 -36 80 -57 49 -31 58 -40 53 -58 -4 -12 -11 -74 -17 -137 -6 -63 -12 -120 -14 -126 -3 -9 -21 -8 -67 2 -35 8 -72 16 -84 19 -17 4 -26 23 -47 97 -35 124 -67 281 -67 331 l0 40 21 -19 c12 -10 30 -37 40 -60z m-1122 -731 c46 -30 138 -128 160 -171 26 -51 28 -134 4 -194 -28 -73 -69 -126 -104 -133 -17 -4 -33 -5 -36 -2 -3 3 11 32 30 64 47 76 60 131 52 207 -8 74 -23 100 -74 126 -91 46 -185 34 -254 -32 -22 -21 -42 -36 -44 -34 -3 2 -1 31 3 63 6 48 13 63 40 90 19 17 44 34 56 37 41 8 141 -4 167 -21z m-2330 -146 c38 -42 101 -90 108 -84 3 3 -11 29 -32 57 -45 61 -40 75 8 28 31 -29 132 -206 123 -215 -5 -5 -163 124 -209 170 -31 32 -97 142 -97 162 0 4 16 -15 36 -42 20 -26 48 -61 63 -76z m4048 -100 c51 -68 132 -207 144 -246 15 -51 24 -161 13 -161 -24 0 -135 129 -159 185 -15 33 -33 64 -41 68 -23 13 -18 198 5 197 3 0 20 -20 38 -43z m-1881 -54 c10 -32 20 -64 22 -70 2 -9 -9 -13 -33 -13 -49 0 -63 35 -40 97 9 24 20 43 24 43 4 0 16 -26 27 -57z m1305 -192 c27 -45 35 -51 74 -57 24 -3 64 -3 87 0 104 15 158 18 158 9 0 -5 -34 -29 -75 -54 -41 -24 -75 -47 -75 -51 0 -5 17 -8 38 -8 26 0 53 10 89 35 64 43 78 44 68 8 -12 -52 -38 -94 -71 -119 -36 -28 -54 -69 -54 -125 0 -21 -4 -40 -8 -43 -15 -9 -59 47 -90 115 -16 36 -61 113 -99 170 -75 112 -93 142 -93 158 0 25 22 8 51 -38z m1096 -633 c87 -39 159 -73 161 -74 2 -1 4 -25 6 -53 1 -39 -1 -51 -12 -51 -11 0 -333 171 -350 186 -10 8 11 64 24 64 7 0 85 -32 171 -72z m-37 -110 c106 -59 142 -84 127 -86 -28 -5 -67 -41 -67 -63 0 -9 21 -34 48 -55 49 -39 75 -67 93 -97 10 -17 8 -17 -13 -6 -36 19 -141 94 -275 196 -111 85 -121 96 -113 116 6 12 15 34 21 50 6 15 15 27 20 27 5 0 77 -37 159 -82z m-91 -140 c169 -126 190 -145 184 -167 -2 -9 14 -48 36 -86 23 -38 41 -73 41 -77 0 -4 -19 2 -42 12 -24 11 -56 20 -71 20 -15 0 -40 6 -55 14 -42 23 -302 316 -302 340 0 11 46 43 64 45 5 1 70 -45 145 -101z m-1288 -254 c156 -105 178 -140 179 -285 0 -94 -1 -98 -33 -145 -47 -67 -107 -98 -171 -87 l-48 8 67 59 c77 68 104 118 105 192 0 63 -26 106 -94 152 -42 27 -57 32 -110 32 -58 0 -110 -9 -148 -25 -32 -13 -19 13 38 74 55 60 57 61 109 61 44 0 62 -6 106 -36z m-80 -274 c28 0 23 -25 -12 -54 -31 -27 -69 -35 -69 -15 0 27 33 80 47 75 8 -4 23 -6 34 -6z m-558 -1577 c-21 -65 -112 -186 -155 -206 -18 -9 -68 -27 -111 -40 l-77 -25 0 30 c0 53 32 84 120 113 71 24 86 33 123 77 65 79 85 98 101 98 13 0 13 -6 -1 -47z"
      ></path>
      <path
        id="pi541CWCZ"
        d="M6840 12583 c-18 -23 -21 -37 -17 -80 7 -66 13 -76 36 -63 27 14 58 134 41 155 -18 22 -36 19 -60 -12z"
      ></path>
      <path
        id="pOgoMJHdV"
        d="M7120 12125 c-17 -21 -4 -35 35 -35 37 0 50 19 26 37 -22 17 -46 16 -61 -2z"
      ></path>
      <path
        id="prpHvrr03"
        d="M6666 11764 c-20 -28 -19 -63 9 -198 17 -83 27 -96 53 -73 18 16 20 15 35 -23 30 -76 87 -34 87 65 0 63 -35 143 -66 151 -15 4 -34 24 -51 55 -14 27 -31 49 -37 49 -6 0 -19 -12 -30 -26z"
      ></path>
      <path
        id="pLTiTV3zo"
        d="M6987 11689 c-10 -6 -40 -14 -65 -18 l-47 -6 -10 -104 c-8 -77 -8 -107 1 -119 10 -14 14 -14 28 -3 9 7 16 21 16 30 0 9 8 3 20 -16 11 -18 27 -33 35 -33 19 0 113 59 137 86 9 10 28 41 42 68 45 86 27 139 -35 102 -27 -16 -28 -16 -39 4 -12 22 -53 27 -83 9z"
      ></path>
      <path
        id="pfGV8hsuL"
        d="M8682 12558 c-8 -8 -12 -46 -12 -105 0 -74 3 -95 15 -99 8 -4 22 0 31 7 22 18 17 171 -6 194 -12 12 -18 13 -28 3z"
      ></path>
      <path
        id="pmLQ8cMLM"
        d="M8235 12531 c-3 -6 -1 -28 4 -48 6 -21 11 -54 11 -73 0 -54 10 -80 31 -80 41 0 57 111 23 157 -27 36 -60 57 -69 44z"
      ></path>
      <path
        id="pORHqH8MX"
        d="M7767 12523 c-3 -4 -7 -42 -9 -83 -3 -71 -2 -75 19 -78 34 -5 47 38 33 100 -11 46 -33 77 -43 61z"
      ></path>
      <path
        id="pi6IcU6AW"
        d="M9063 12423 c-16 -6 -17 -85 -1 -101 19 -19 38 6 38 53 0 42 -11 57 -37 48z"
      ></path>
      <path
        id="py558m7n9"
        d="M8582 11507 c-33 -40 -87 -238 -83 -307 2 -23 3 -22 20 13 9 20 20 34 24 30 4 -3 7 -62 7 -130 0 -67 4 -123 9 -123 11 0 21 110 21 237 0 67 7 132 20 188 11 48 18 91 15 96 -8 13 -21 11 -33 -4z"
      ></path>
      <path
        id="pHSTRtM55"
        d="M8423 11452 c-34 -22 -76 -168 -64 -225 l7 -32 16 45 16 45 2 -60 c2 -74 20 -147 38 -153 11 -4 13 18 7 119 -4 68 -11 131 -16 140 -6 11 0 34 16 68 14 28 25 53 25 56 0 8 -34 6 -47 -3z"
      ></path>
      <path
        id="pBaVwovH0"
        d="M8285 11328 c-3 -18 -5 -67 -3 -108 3 -71 4 -74 17 -50 19 32 22 181 4 187 -7 3 -14 -9 -18 -29z"
      ></path>
      <path
        id="pXA8uaD1O"
        d="M8854 10195 c-25 -38 -39 -179 -24 -235 l13 -45 13 30 c26 63 45 275 24 275 -5 0 -17 -11 -26 -25z"
      ></path>
      <path
        id="pU7cbDtzT"
        d="M9017 10077 c-18 -47 -1 -155 38 -242 28 -61 31 -19 6 83 -11 48 -24 107 -29 132 -6 33 -10 40 -15 27z"
      ></path>
      <path
        id="pUtLW4DkX"
        d="M8650 10028 c0 -7 19 -47 42 -88 35 -61 43 -71 46 -52 4 26 -23 119 -40 140 -6 6 -19 12 -29 12 -11 0 -19 -6 -19 -12z"
      ></path>
      <path
        id="pS01FeIbt"
        d="M8112 9014 c-19 -21 -10 -47 48 -143 73 -120 79 -133 126 -266 l43 -120 0 90 c1 120 -24 188 -119 337 -41 65 -77 117 -80 117 -3 0 -11 -7 -18 -15z"
      ></path>
      <path
        id="p1Hi8JiF3W"
        d="M7372 8673 c-35 -30 -53 -116 -64 -311 -9 -159 -8 -192 6 -250 9 -37 16 -94 16 -126 0 -78 51 -187 124 -262 74 -76 92 -73 57 9 -21 50 -46 156 -37 164 3 3 27 -13 55 -36 69 -58 131 -88 131 -63 0 4 -45 57 -100 117 -55 61 -107 122 -115 137 -14 25 -47 189 -40 196 2 2 12 -16 23 -40 19 -42 141 -170 129 -135 -9 24 -4 22 50 -19 41 -31 153 -94 168 -94 14 0 -1 21 -60 85 -45 48 -61 71 -51 75 10 4 4 19 -25 64 -21 33 -37 61 -35 63 2 2 47 -23 100 -57 164 -101 158 -82 -28 106 l-145 145 -17 77 c-24 109 -43 152 -71 163 -35 13 -48 11 -71 -8z"
      ></path>
      <path
        id="p7Tudlo1r"
        d="M6808 8335 c-3 -3 3 -38 13 -77 10 -39 22 -98 25 -132 9 -91 -22 -266 -47 -266 -5 0 -11 12 -14 28 -18 85 -28 118 -42 146 -17 35 -52 76 -65 76 -14 0 -8 -92 12 -183 19 -89 19 -89 -1 -145 -11 -32 -26 -88 -35 -127 -16 -77 -33 -125 -44 -125 -16 0 -127 169 -171 261 -57 116 -107 175 -208 241 -128 83 -135 60 -22 -71 96 -113 155 -197 147 -210 -13 -20 -67 -24 -87 -5 -10 9 -19 13 -19 8 0 -5 -5 -1 -11 9 -5 9 -17 17 -25 17 -24 0 -9 -48 41 -139 59 -106 87 -170 80 -181 -3 -5 -16 -5 -31 2 -22 10 -28 9 -40 -6 -8 -11 -11 -30 -7 -47 3 -16 1 -29 -4 -29 -6 0 -37 30 -70 68 -34 37 -88 96 -122 132 -33 36 -61 68 -61 73 0 4 -5 7 -11 7 -14 0 -3 -50 26 -115 12 -28 51 -94 87 -146 36 -52 73 -117 83 -144 10 -28 31 -83 46 -123 16 -41 29 -76 29 -78 0 -3 -13 4 -29 15 -37 27 -67 27 -81 0 -12 -22 -9 -29 39 -81 32 -36 20 -46 -27 -24 -75 37 -178 59 -204 45 -20 -11 -24 -39 -7 -56 8 -8 -4 -13 -47 -18 -33 -4 -75 -14 -94 -22 -33 -13 -34 -15 -17 -28 10 -7 42 -17 70 -20 29 -4 63 -12 77 -17 26 -10 80 -56 80 -69 0 -4 -33 7 -74 26 -40 18 -94 37 -120 40 -49 8 -96 0 -96 -14 0 -5 44 -23 98 -40 74 -23 111 -41 156 -77 40 -31 61 -42 66 -34 8 13 36 -8 144 -109 40 -37 72 -59 74 -52 8 24 -9 58 -62 125 -30 37 -69 89 -87 115 l-34 46 40 -31 c22 -18 61 -55 88 -83 73 -80 93 -47 32 53 -50 83 -33 101 39 43 23 -19 51 -39 64 -46 27 -14 28 -6 7 63 -8 27 -13 51 -11 54 3 2 32 -13 66 -34 33 -20 63 -35 65 -32 3 3 -2 21 -10 41 -19 45 -20 120 -2 115 6 -3 36 -41 66 -86 29 -45 57 -79 62 -76 13 7 11 60 -3 106 -10 35 -9 41 9 60 l21 20 27 -81 c41 -126 62 -95 30 45 -9 36 -14 69 -11 71 3 3 21 -28 42 -68 20 -41 57 -103 82 -138 44 -62 46 -63 54 -39 6 18 -1 59 -27 146 -55 192 -69 326 -43 399 15 42 24 42 32 -2 9 -46 39 -113 65 -145 30 -36 44 -12 36 65 -12 112 -6 322 9 360 8 19 19 35 24 35 5 0 12 -44 14 -97 3 -81 9 -109 33 -161 15 -34 33 -61 39 -59 7 2 13 81 17 238 l5 234 47 128 c26 71 47 142 47 158 0 25 -4 29 -27 29 -21 0 -48 -20 -111 -82 l-84 -83 9 70 c16 140 5 192 -64 293 -35 51 -44 58 -55 47z"
      ></path>
      <path
        id="p164xYakKY"
        d="M7506 7535 c-3 -9 -6 -71 -7 -138 0 -67 -4 -144 -8 -172 l-7 -50 -11 35 c-6 19 -17 62 -24 95 -16 79 -35 115 -59 115 -30 0 -26 -52 16 -210 20 -74 43 -161 52 -192 8 -32 18 -55 22 -53 4 3 10 23 14 46 4 23 15 63 25 88 11 25 22 55 25 65 14 41 20 10 52 -277 7 -62 24 -60 24 3 0 19 9 51 19 70 44 80 61 117 71 157 6 22 19 51 29 64 18 22 18 22 25 -42 9 -85 30 -167 39 -151 14 21 20 275 9 367 -12 108 -27 145 -56 145 -35 0 -44 -13 -51 -70 -16 -140 -48 -272 -59 -240 -2 8 -10 53 -16 100 -6 47 -21 123 -33 170 -22 82 -24 85 -54 88 -21 2 -32 -2 -37 -13z"
      ></path>
      <path
        id="pMPXtghUi"
        d="M7265 7314 c8 -44 66 -165 76 -158 7 4 -8 77 -32 152 -10 29 -19 42 -33 42 -16 0 -17 -5 -11 -36z"
      ></path>
      <path
        id="pwuuHn8mn"
        d="M9087 6951 c-32 -33 -57 -62 -57 -65 0 -35 111 58 123 103 8 33 -6 25 -66 -38z"
      ></path>
      <path
        id="pnorvlJmd"
        d="M6788 6564 c-4 -5 -14 -65 -23 -134 -8 -68 -17 -126 -19 -128 -2 -2 -7 12 -11 30 -15 77 -37 140 -45 132 -12 -12 -35 -335 -26 -360 7 -18 10 -17 37 14 16 18 29 41 29 52 0 13 7 20 20 20 41 0 74 104 74 235 0 77 -22 162 -36 139z"
      ></path>
      <path
        id="p5Dw8dVDo"
        d="M6916 6518 c-8 -57 -9 -265 -1 -278 11 -17 22 -11 35 20 17 41 26 31 34 -37 9 -77 16 -104 27 -97 19 11 10 140 -15 205 -13 35 -29 97 -35 138 -7 41 -14 78 -17 82 -12 19 -22 7 -28 -33z"
      ></path>
      <path
        id="pR2zbupYW"
        d="M7086 6513 c-7 -26 -29 -394 -24 -423 3 -23 5 -22 30 20 33 57 47 127 50 255 2 68 -1 111 -11 133 -15 35 -37 42 -45 15z"
      ></path>
      <path
        id="p9j2YxxoA"
        d="M6500 6323 c0 -59 4 -113 8 -119 4 -6 17 -14 29 -18 20 -6 21 -12 16 -62 -5 -50 -4 -56 12 -53 40 8 79 130 66 204 l-7 40 -22 -35 c-12 -19 -22 -43 -22 -52 0 -9 -3 -19 -7 -21 -5 -3 -8 32 -8 78 0 69 -4 88 -21 111 -39 52 -44 44 -44 -73z"
      ></path>
      <path
        id="pS81NHn0j"
        d="M7166 6308 c-9 -35 -7 -74 5 -105 10 -26 12 -27 19 -8 10 24 12 97 4 119 -9 23 -21 20 -28 -6z"
      ></path>
      <path
        id="ppAmGrShb"
        d="M7386 6078 c-15 -20 -42 -72 -60 -115 -18 -43 -54 -117 -80 -164 -25 -47 -46 -93 -46 -103 0 -16 2 -16 31 1 55 32 145 198 174 320 22 90 17 107 -19 61z"
      ></path>
      <path
        id="p6jhjsfZ5"
        d="M4656 9869 c-42 -28 -79 -66 -145 -149 l-20 -25 6 68 c3 37 2 67 -3 67 -13 0 -101 -103 -115 -133 -18 -39 -6 -57 38 -57 27 0 45 -8 66 -27 l29 -28 21 25 c12 14 30 37 39 50 l17 25 1 -50 c0 -63 10 -125 20 -125 4 0 15 18 25 41 11 23 46 66 78 97 64 61 137 148 137 163 0 13 -96 -37 -141 -72 -20 -16 -40 -29 -43 -29 -18 0 -3 79 24 127 43 77 40 80 -34 32z"
      ></path>
      <path
        id="psavpGipn"
        d="M5060 5312 c0 -4 21 -28 46 -52 25 -25 50 -53 56 -63 8 -17 7 -18 -14 -12 -12 4 -50 20 -84 36 -108 52 -122 32 -23 -31 43 -28 49 -36 46 -63 -2 -27 3 -34 38 -53 22 -13 83 -35 135 -50 120 -33 159 -56 278 -161 54 -47 122 -98 153 -114 37 -18 88 -60 148 -121 74 -75 93 -90 101 -78 15 23 2 77 -40 168 -32 67 -43 82 -62 82 -19 1 -29 14 -57 75 -19 41 -37 75 -41 75 -3 0 -4 -22 0 -50 10 -77 -12 -64 -65 38 -41 80 -88 142 -99 131 -2 -2 14 -44 36 -94 54 -123 54 -125 14 -81 -24 26 -43 64 -62 123 -16 50 -42 105 -62 132 -44 58 -41 55 -47 49 -3 -3 8 -40 25 -83 17 -43 29 -79 28 -81 -2 -1 -27 32 -56 74 -29 42 -66 93 -83 112 l-31 35 7 -30 c4 -16 22 -55 40 -85 58 -94 4 -70 -71 31 -33 45 -101 105 -109 97 -3 -2 11 -27 30 -56 19 -28 35 -54 35 -58 0 -3 -41 33 -91 80 -82 77 -119 101 -119 78z"
      ></path>
      <path
        id="pak9jpWQD"
        d="M3875 5071 c-7 -63 -3 -81 21 -81 10 0 14 14 14 54 0 100 -24 119 -35 27z"
      ></path>
      <path
        id="pw8OAjdqw"
        d="M4581 4993 c-12 -31 -27 -89 -33 -128 -11 -72 -10 -77 46 -347 2 -10 1 -18 -4 -18 -14 0 -78 143 -90 200 -6 30 -17 69 -24 85 l-14 30 -12 -30 c-7 -19 -10 -62 -8 -115 4 -74 10 -96 45 -170 22 -47 60 -119 86 -160 25 -41 44 -76 42 -79 -8 -7 -64 46 -129 122 -95 109 -109 101 -43 -28 36 -70 169 -208 238 -248 25 -15 66 -30 90 -33 63 -9 151 11 167 37 8 12 11 23 9 25 -2 3 -41 11 -86 18 -74 12 -86 17 -119 51 -24 24 -33 39 -24 42 17 7 15 30 -5 45 -10 8 -31 29 -48 47 l-30 34 66 -37 c100 -55 106 -46 24 39 -30 32 -55 58 -55 60 0 2 -7 38 -15 81 -9 44 -18 90 -21 104 -2 14 12 -4 31 -40 72 -132 119 -162 76 -47 -61 163 -71 202 -86 323 -16 131 -30 194 -44 194 -5 0 -18 -26 -30 -57z"
      ></path>
      <path
        id="p150G4hyHs"
        d="M3944 4906 c-3 -15 0 -54 8 -86 9 -37 11 -65 5 -75 -5 -9 -4 -45 3 -87 10 -69 34 -122 65 -148 8 -7 15 -17 15 -22 0 -13 -60 29 -87 61 l-22 26 -1 -31 c0 -17 15 -55 36 -90 59 -98 59 -101 -6 -39 -59 57 -62 58 -56 30 19 -81 109 -185 198 -229 59 -30 119 -36 98 -11 -11 13 -5 15 43 15 30 0 63 3 71 6 26 10 -1 34 -36 34 -17 0 -45 7 -63 16 -37 17 -115 81 -115 94 0 4 21 2 47 -6 48 -15 129 -19 157 -8 13 5 14 9 5 20 -6 8 -19 14 -28 14 -18 0 -136 74 -147 92 -5 8 -1 9 12 3 10 -4 36 -10 57 -13 59 -7 48 22 -21 57 -62 31 -137 90 -161 125 -17 24 -16 24 59 -36 25 -20 67 -43 93 -52 97 -33 90 -16 -33 77 l-93 72 -43 103 c-23 57 -45 106 -48 109 -3 3 -8 -7 -12 -21z"
      ></path>
      <path
        id="ptqukm2c2"
        d="M4060 4815 c0 -27 9 -45 39 -78 39 -42 135 -97 147 -84 15 15 -148 197 -177 197 -5 0 -9 -16 -9 -35z"
      ></path>
      <path
        id="p9wseEOHc"
        d="M6410 4811 c0 -25 33 -44 60 -36 20 6 27 30 13 38 -5 3 -23 8 -40 12 -29 6 -33 4 -33 -14z"
      ></path>
      <path
        id="pF7ThYcdR"
        d="M6263 4763 c-27 -5 -28 -12 -9 -39 12 -15 18 -17 33 -8 19 12 25 46 8 49 -5 1 -20 0 -32 -2z"
      ></path>
      <path
        id="puz8KVGeO"
        d="M6485 4750 c-9 -15 23 -80 39 -80 20 0 20 23 1 60 -16 31 -29 37 -40 20z"
      ></path>
      <path
        id="pyxafs6dh"
        d="M6351 4676 c-20 -24 -10 -70 17 -74 22 -3 23 -1 16 35 -8 47 -17 58 -33 39z"
      ></path>
      <path
        id="pIOvNunVf"
        d="M2540 4605 c0 -96 114 -263 229 -337 43 -27 91 -37 91 -20 0 5 -18 37 -40 73 -22 35 -53 90 -70 121 -41 78 -54 84 -45 19 12 -87 -6 -70 -90 88 -28 52 -56 96 -63 99 -8 2 -12 -11 -12 -43z"
      ></path>
      <path
        id="p1CTj9uni6"
        d="M6686 4641 c-3 -5 4 -22 16 -37 12 -16 23 -31 25 -33 9 -12 13 12 8 43 -5 26 -12 36 -26 36 -10 0 -20 -4 -23 -9z"
      ></path>
      <path
        id="pg3qyOJJE"
        d="M6557 4633 c-8 -14 12 -53 26 -53 20 0 40 27 33 45 -5 15 -51 21 -59 8z"
      ></path>
      <path
        id="p1C0tQxSQL"
        d="M6432 4579 c2 -19 8 -33 13 -31 15 3 12 55 -3 60 -10 3 -13 -5 -10 -29z"
      ></path>
      <path
        id="psabPxYJN"
        d="M3886 4348 c4 -13 10 -48 13 -79 7 -62 38 -108 107 -154 42 -28 85 -35 64 -10 -10 12 -1 15 62 17 l73 3 -86 42 c-75 37 -96 53 -155 122 -72 83 -90 97 -78 59z"
      ></path>
      <path
        id="pAxsoj4dH"
        d="M3060 4347 c0 -4 13 -35 28 -70 40 -88 148 -194 244 -241 105 -52 215 -70 254 -42 27 20 16 26 -68 37 -48 6 -98 22 -148 46 -64 31 -93 54 -192 157 -65 67 -118 118 -118 113z"
      ></path>
      <path
        id="pJzK2Te9S"
        d="M4290 4095 c14 -8 36 -14 50 -14 24 1 24 1 -5 14 -16 8 -39 14 -50 14 -18 0 -17 -1 5 -14z"
      ></path>
      <path
        id="pqGoAlcB2"
        d="M4544 3995 c-14 -14 -22 -30 -19 -36 4 -6 -2 -13 -14 -16 -14 -3 -21 -13 -21 -28 0 -20 -10 -26 -87 -49 -183 -54 -228 -71 -228 -86 0 -8 14 -17 33 -21 18 -4 35 -9 38 -12 11 -10 -267 -134 -363 -162 -13 -3 -23 -11 -23 -17 0 -14 95 -2 180 22 36 10 92 24 125 30 85 17 115 30 115 49 0 18 71 92 106 109 11 6 66 20 122 31 56 11 113 28 126 37 28 18 96 98 96 112 0 11 -121 62 -146 62 -8 0 -26 -11 -40 -25z"
      ></path>
      <path
        id="p18R2nqsgM"
        d="M7076 3903 c-11 -11 -6 -23 9 -23 8 0 15 4 15 9 0 13 -16 22 -24 14z"
      ></path>
      <path
        id="pVPdJ7NT3"
        d="M7003 3834 c-7 -18 -5 -19 30 -28 23 -6 28 -4 25 10 -4 24 -47 38 -55 18z"
      ></path>
      <path
        id="p1Dfy2OwGs"
        d="M7070 3752 c0 -28 23 -53 39 -43 21 13 6 61 -19 61 -13 0 -20 -7 -20 -18z"
      ></path>
      <path
        id="p4Iq3rWOe"
        d="M6945 3747 c-4 -10 -5 -21 -1 -24 10 -10 18 4 13 24 -4 17 -4 17 -12 0z"
      ></path>
      <path
        id="pMgdPJElX"
        d="M4489 3661 c-14 -4 -36 -14 -48 -21 -19 -10 -21 -14 -10 -21 8 -5 25 -9 39 -9 14 0 50 -16 80 -36 47 -30 60 -34 96 -28 27 4 60 -1 101 -14 34 -11 106 -23 161 -27 93 -7 103 -6 136 15 32 19 64 57 54 64 -9 7 -153 26 -228 30 -53 3 -105 13 -139 26 -59 23 -198 35 -242 21z"
      ></path>
      <path
        id="p1ERhZJl9a"
        d="M6545 3660 c-11 -4 -55 -11 -98 -15 -72 -7 -83 -11 -125 -47 -65 -55 -112 -110 -112 -132 0 -15 6 -17 38 -14 33 5 200 66 310 114 40 18 55 45 32 59 -5 3 -10 15 -10 26 0 21 -5 22 -35 9z"
      ></path>
      <path
        id="p15tH4uXK8"
        d="M6997 3633 c-13 -12 -7 -43 7 -43 16 0 25 19 18 38 -5 13 -15 16 -25 5z"
      ></path>
      <path
        id="pjKS6xXXN"
        d="M5083 3227 c-33 -34 -67 -76 -75 -92 -23 -44 -46 -61 -113 -83 -53 -16 -61 -23 -71 -52 -8 -23 -20 -36 -37 -41 -14 -4 -45 -20 -69 -37 -24 -16 -64 -41 -90 -56 -71 -40 -68 -46 16 -46 65 0 78 3 96 23 20 20 22 21 31 5 12 -21 20 -22 72 -7 28 8 42 19 57 49 11 21 41 56 66 77 25 21 56 58 69 83 34 68 107 144 157 164 63 26 71 31 82 49 15 24 5 28 -38 15 -29 -9 -42 -9 -57 0 -10 7 -23 12 -27 12 -5 0 -36 -28 -69 -63z"
      ></path>
      <path
        id="poAejJnnv"
        d="M6480 3191 c0 -17 23 -93 51 -168 l51 -138 -4 -155 c-3 -132 -7 -164 -27 -215 -12 -33 -30 -86 -38 -118 -15 -53 -14 -63 1 -120 9 -34 26 -73 37 -87 l20 -25 -6 105 c-4 71 -3 115 5 135 l12 30 18 -59 c39 -122 52 -75 29 103 -7 57 -7 108 -1 151 l10 65 1 -55 c5 -149 36 -187 47 -58 l7 83 28 -62 c29 -65 115 -199 143 -222 31 -26 18 19 -33 113 -26 50 -51 105 -55 121 l-6 30 18 -25 c49 -70 96 -123 99 -113 3 7 -18 61 -46 120 -47 100 -71 173 -58 173 3 0 26 -31 53 -70 26 -38 51 -70 56 -70 23 0 1 65 -53 157 -34 57 -59 106 -56 110 3 3 20 0 38 -6 18 -6 36 -11 41 -11 31 0 -107 155 -187 210 -52 35 -144 85 -172 94 -20 7 -23 4 -23 -23z"
      ></path>
      <path
        id="pBKLwbkXq"
        d="M5471 2821 c-17 -16 -49 -66 -71 -112 -41 -84 -51 -152 -31 -204 l8 -20 6 20 c3 11 9 40 12 65 4 25 15 59 24 75 l16 30 2 -60 c4 -83 12 -127 24 -120 5 4 9 21 9 40 0 43 19 135 29 135 8 0 31 -212 31 -283 0 -41 -3 -50 -21 -54 -20 -6 -21 -11 -16 -70 6 -65 28 -112 67 -148 22 -20 26 -14 9 17 -21 39 1 29 79 -37 83 -69 97 -91 137 -212 9 -29 19 -53 22 -53 12 0 -5 146 -19 175 -9 17 -43 57 -77 90 -64 62 -124 134 -101 120 7 -4 42 -30 79 -58 64 -49 128 -83 138 -73 2 2 0 14 -7 25 -6 12 -9 21 -7 21 2 0 36 -11 76 -25 93 -31 182 -48 194 -36 11 11 -70 50 -169 79 -70 21 -154 72 -154 93 0 6 7 8 17 5 61 -24 114 -37 135 -34 19 3 8 14 -72 74 -156 118 -178 144 -118 144 l32 0 -51 53 c-86 88 -113 166 -89 252 19 62 21 105 5 105 -6 0 -27 -16 -46 -35 -19 -19 -32 -27 -28 -18 17 42 18 53 2 47 -8 -3 -18 -1 -22 5 -10 17 -20 13 -54 -18z"
      ></path>
      <path
        id="p10eYUgaBn"
        d="M5235 2808 c-34 -35 -78 -58 -112 -58 -21 0 -37 -7 -46 -20 -9 -12 -20 -18 -30 -14 -9 3 -24 -3 -36 -15 -20 -20 -21 -20 -31 -1 -10 19 -11 19 -60 0 -27 -11 -58 -25 -69 -32 -15 -9 -25 -9 -46 0 -35 16 -84 15 -115 -3 -14 -8 -41 -14 -60 -15 -68 0 -164 -88 -147 -134 7 -18 27 -13 71 17 15 11 60 25 100 32 64 11 72 10 83 -5 7 -10 31 -20 55 -23 26 -3 49 -14 60 -26 24 -31 42 -26 86 26 l40 47 7 -37 c8 -39 29 -49 53 -25 9 9 12 7 12 -9 0 -12 4 -24 8 -27 4 -3 42 32 83 76 72 80 82 97 124 226 16 48 4 56 -30 20z"
      ></path>
      <path
        id="pTcD2IgiO"
        d="M6690 2452 c6 -38 88 -187 97 -178 14 14 -76 216 -96 216 -5 0 -5 -17 -1 -38z"
      ></path>
      <path
        id="psC4hF05o"
        d="M4817 2177 c-28 -43 -47 -137 -28 -137 8 0 61 130 61 151 0 17 -17 9 -33 -14z"
      ></path>
      <path
        id="p18oREDqnG"
        d="M4332 1956 c-40 -51 -104 -192 -100 -222 l3 -29 23 35 23 35 -7 -70 c-8 -93 3 -79 55 65 49 134 62 210 38 210 -8 0 -24 -11 -35 -24z"
      ></path>
      <path
        id="pwS0PXGw7"
        d="M4508 1921 c-36 -29 -128 -174 -139 -218 -15 -67 -9 -163 11 -163 5 0 14 26 21 58 7 31 15 61 19 65 4 4 10 -26 13 -68 13 -144 58 -263 135 -354 27 -32 29 -33 34 -14 4 14 -10 53 -39 109 -40 77 -46 97 -51 169 -2 47 0 90 5 100 9 15 17 7 53 -54 23 -39 46 -71 50 -71 10 0 -5 77 -26 125 -11 27 -19 87 -25 185 -4 80 -8 146 -8 148 -3 8 -32 -1 -53 -17z"
      ></path>
      <path
        id="pZsA6Cnb8"
        d="M4216 1851 c-43 -81 -74 -269 -61 -368 l8 -58 18 130 c9 72 27 168 39 214 25 97 23 133 -4 82z"
      ></path>
      <path
        id="pdoW9wKZn"
        d="M4107 1808 c-10 -23 -17 -60 -16 -95 l1 -58 19 75 c23 92 21 134 -4 78z"
      ></path>
      <path
        id="pYCntjv1J"
        d="M4062 1464 c-26 -50 -43 -140 -49 -260 -4 -94 -3 -133 6 -138 7 -4 11 0 11 11 1 39 30 241 46 311 11 50 13 77 6 84 -7 7 -13 4 -20 -8z"
      ></path>
      <path
        id="pkv048aGK"
        d="M4340 1427 c0 -44 93 -216 162 -298 21 -25 38 -48 38 -52 0 -4 -18 4 -40 18 -22 14 -40 20 -40 14 0 -25 26 -59 103 -132 89 -85 81 -94 -28 -29 -78 46 -96 62 -166 151 -66 83 -77 74 -35 -29 24 -58 23 -73 -2 -48 -6 6 -15 9 -18 5 -14 -14 17 -85 71 -162 63 -91 58 -104 -24 -59 -79 43 -107 76 -137 166 -24 73 -26 91 -21 175 3 51 2 95 -2 98 -10 5 -54 -120 -76 -215 -31 -134 -8 -279 60 -382 l26 -40 -23 7 c-39 12 -75 54 -120 139 -42 79 -43 83 -43 179 0 53 -3 97 -8 97 -16 0 -48 -91 -54 -157 l-6 -68 -12 40 -12 40 -12 -28 c-6 -16 -11 -65 -12 -110 -1 -76 -2 -80 -14 -52 -7 17 -15 71 -19 120 -9 125 -17 175 -27 175 -5 0 -9 -15 -9 -33 0 -34 -51 -127 -70 -127 -5 0 -10 17 -10 37 0 51 -15 32 -34 -43 -19 -72 -21 -216 -5 -279 25 -100 81 -121 221 -80 51 14 144 35 206 45 213 37 307 66 447 140 72 37 150 74 175 80 59 15 100 48 138 107 41 65 45 97 12 101 -135 17 -302 136 -401 287 -50 75 -155 208 -170 213 -5 2 -9 -3 -9 -11z"
      ></path>
      <path
        id="pjqgXu4vb"
        d="M3962 1286 c-16 -21 -22 -42 -22 -78 0 -62 14 -55 35 18 22 75 17 98 -13 60z"
      ></path>
      <path
        id="pt3YX23B6"
        d="M4825 1040 c45 -46 77 -70 92 -70 29 0 29 13 2 51 -23 33 -114 89 -144 89 -15 0 -2 -17 50 -70z"
      ></path>
    </g>
  </g>
</svg>
